<?xml version="1.0" encoding="UTF-8"?>
<svg version="1.1" xmlns="http://www.w3.org/2000/svg" width="478" height="558">
<path d="M0 0 C1.04048492 0.00323273 1.04048492 0.00323273 2.10198975 0.00653076 C53.06991506 0.25897003 98.23952736 21.85892682 133.81640625 57.77734375 C162.29849916 88.39941502 180.18834892 130.4185576 181.375 172.3125 C181.41496094 173.58609375 181.45492188 174.8596875 181.49609375 176.171875 C182.54066836 226.19932682 163.56333006 272.33328694 129.26171875 308.359375 C115.56548939 322.48403432 99.83849002 333.39149745 82.375 342.3125 C81.7267627 342.64620605 81.07852539 342.97991211 80.41064453 343.32373047 C64.90409848 351.20820962 48.44309497 356.14146517 31.375 359.3125 C30.17617188 359.539375 28.97734375 359.76625 27.7421875 360 C-7.82496999 365.53096186 -45.24114714 359.77230684 -77.625 344.3125 C-78.34880859 343.96848145 -79.07261719 343.62446289 -79.81835938 343.27001953 C-94.6936401 336.07717076 -108.30345016 326.9190744 -120.2890625 315.52734375 C-122.31897873 313.60265729 -124.39955453 311.83258395 -126.5625 310.0625 C-158.75068365 281.88141676 -176.74940887 236.7005216 -180.09765625 194.84375 C-182.42913219 159.68085372 -175.45879806 125.29550107 -158.625 94.3125 C-158.30418457 93.70712402 -157.98336914 93.10174805 -157.65283203 92.47802734 C-152.81264891 83.36550382 -147.15396503 75.26273633 -140.625 67.3125 C-140.16077637 66.73999512 -139.69655273 66.16749023 -139.21826172 65.57763672 C-108.9515715 28.41863344 -65.13194564 5.7440988 -17.6232605 0.49676514 C-11.76065272 -0.04384217 -5.88207874 -0.02515859 0 0 Z M-32.625 31.3125 C-33.35009766 31.47878906 -34.07519531 31.64507813 -34.82226562 31.81640625 C-46.72704085 34.59934072 -57.65452507 38.95868689 -68.625 44.3125 C-69.64207031 44.80621094 -70.65914063 45.29992187 -71.70703125 45.80859375 C-105.80956845 63.4340632 -132.66715181 95.6962685 -144.87109375 131.92480469 C-157.32351254 171.36284089 -154.64523218 213.54527599 -135.7956543 250.49316406 C-129.90861629 261.65513215 -122.91847694 271.78412294 -114.625 281.3125 C-113.83222656 282.23933594 -113.03945312 283.16617188 -112.22265625 284.12109375 C-106.53445856 290.60006773 -100.48998614 296.10737911 -93.625 301.3125 C-93.08858887 301.72387207 -92.55217773 302.13524414 -91.99951172 302.55908203 C-83.65076552 308.92129434 -75.17157783 313.93093996 -65.625 318.3125 C-64.98175781 317.36632812 -64.33851563 316.42015625 -63.67578125 315.4453125 C-58.62482876 308.04243321 -53.50471418 300.69738635 -48.25 293.4375 C-47.71213867 292.69234131 -47.17427734 291.94718262 -46.62011719 291.17944336 C-43.81753682 287.30575233 -40.98893797 283.45455785 -38.12109375 279.62890625 C-23.65437153 260.22511186 -13.20820982 236.09123884 -15.625 211.3125 C-19.10508638 189.40528958 -26.82086782 167.71711187 -38.35546875 148.79296875 C-38.81526123 148.03467773 -39.27505371 147.27638672 -39.7487793 146.49511719 C-40.64137902 145.03896195 -41.54958341 143.59221417 -42.47583008 142.15722656 C-45.30046224 137.60097449 -46.12717556 134.67601397 -45.625 129.3125 C-42.12638579 129.57029263 -40.86556561 130.05833351 -38.4140625 132.6484375 C-37.69992188 133.65132813 -36.98578125 134.65421875 -36.25 135.6875 C-35.66810913 136.49127075 -35.66810913 136.49127075 -35.07446289 137.3112793 C-32.5673378 140.81816239 -30.29725908 144.4379032 -28.0625 148.125 C-24.67736732 153.59024926 -20.45720097 158.39639952 -14.625 161.3125 C-11.20961856 161.89619443 -11.20961856 161.89619443 -7.625 161.3125 C-2.92062646 155.9908528 -1.39691962 149.13168601 0.5625 142.4375 C0.91836182 141.23327393 1.27422363 140.02904785 1.64086914 138.78833008 C3.87247511 130.91825957 5.27693629 123.61820144 5.33984375 115.44921875 C5.37514145 112.29987911 5.78162021 109.40087829 6.375 106.3125 C8.85 105.8175 8.85 105.8175 11.375 105.3125 C11.6237646 116.38252463 11.19109477 127.23269409 10.08642578 138.25415039 C9.52280322 143.97627573 9.28082219 149.56176776 9.375 155.3125 C12.15969088 154.97151744 13.92519153 154.70040823 16.078125 152.84375 C20.46125235 147.08812823 23.82200361 140.99605451 27.00292969 134.51757812 C29.42938651 129.68248969 32.11544352 124.76845008 36.375 121.3125 C39.06469727 120.62255859 39.06469727 120.62255859 41.375 120.3125 C31.25086741 144.08546319 31.25086741 144.08546319 25.625 154.61328125 C24.81928273 156.15177019 24.08848224 157.7291265 23.375 159.3125 C23.705 159.9725 24.035 160.6325 24.375 161.3125 C36.30800408 153.55121258 36.30800408 153.55121258 42.84375 141.6953125 C43.02495206 139.91852563 43.15890158 138.13596983 43.234375 136.3515625 C43.375 134.3125 43.375 134.3125 44.375 133.3125 C46.8125 133.125 46.8125 133.125 49.375 133.3125 C51.375 135.3125 51.375 135.3125 51.65234375 138.109375 C50.52072995 151.17871751 37.170285 161.73290319 28.375 170.3125 C33.13895755 170.3125 36.41675572 167.33875955 40.3671875 164.84375 C43.40973467 163.2948169 45.0292842 162.96681719 48.375 163.3125 C48.20703125 165.625 48.20703125 165.625 47.375 168.3125 C45.01171875 169.9375 45.01171875 169.9375 42.0625 171.3125 C37.62336296 173.54345092 35.4170279 175.38730271 32.375 179.3125 C30.77506165 180.31211244 29.14601625 181.2657309 27.5 182.1875 C20.57898933 186.19332797 16.25599496 190.7071039 14.03125 198.48046875 C7.05210033 228.59882299 12.6008861 256.6762666 28.94824219 283.01757812 C30.07676342 284.791934 31.22101519 286.55461129 32.375 288.3125 C32.7477002 288.88097656 33.12040039 289.44945312 33.50439453 290.03515625 C33.8754834 290.60105469 34.24657227 291.16695313 34.62890625 291.75 C35.37799008 292.89558108 36.12668869 294.04141415 36.875 295.1875 C37.24254395 295.74663086 37.61008789 296.30576172 37.98876953 296.88183594 C41.46778005 302.26388195 44.42024198 307.89746128 47.28125 313.62841797 C49.23391295 317.4693205 51.06414633 320.44061344 54.375 323.3125 C60.83902939 321.36838764 66.73260916 318.85617997 72.6875 315.6875 C73.51854248 315.24583496 74.34958496 314.80416992 75.20581055 314.34912109 C82.14644577 310.57974862 88.28972107 306.36986019 94.375 301.3125 C94.92994141 300.86148926 95.48488281 300.41047852 96.05664062 299.94580078 C127.73217636 274.16359101 148.57364823 237.58839729 152.90844727 196.6640625 C156.51491634 155.91428811 144.82999338 115.55459646 118.72265625 83.9140625 C96.25190646 57.20969319 67.56438129 39.16401041 33.375 31.3125 C32.65666992 31.13750977 31.93833984 30.96251953 31.19824219 30.78222656 C10.8129978 25.95137325 -12.29871106 26.40948253 -32.625 31.3125 Z " fill="#D9A851" transform="translate(238.625,-0.3125)"/>
<path d="M0 0 C5.15947346 -0.07440448 10.31863151 -0.12872191 15.47851562 -0.16479492 C17.23215173 -0.17983995 18.98575047 -0.20028104 20.73925781 -0.22631836 C23.26637009 -0.26289121 25.79298296 -0.2797692 28.3203125 -0.29296875 C29.48785568 -0.31619453 29.48785568 -0.31619453 30.6789856 -0.33988953 C36.32801553 -0.34161856 40.42947315 0.78099819 44.828125 4.578125 C48.67790598 9.10479054 51.07431028 13.08182149 50.95703125 19.265625 C50.64840997 22.78274295 50.30799369 25.42601175 48.625 28.5625 C48.41875 29.366875 48.2125 30.17125 48 31 C48.99853888 32.70002484 48.99853888 32.70002484 50.375 34.5 C54.1655832 39.94766875 53.75976064 45.60465217 53 52 C51.0634754 57.70765144 47.48746542 61.44305514 42.40185547 64.6262207 C38.06803057 66.37635941 34.50450316 66.38001504 29.8828125 66.29296875 C29.02565643 66.28872391 28.16850037 66.28447906 27.28536987 66.28010559 C24.56491836 66.26339886 21.84522518 66.22576219 19.125 66.1875 C17.27344825 66.17244278 15.42188481 66.1587562 13.5703125 66.14648438 C9.04658567 66.11352165 4.52342113 66.06179537 0 66 C-1.35748233 63.28503534 -1.12717801 61.15266427 -1.12939453 58.11328125 C-1.13254669 56.87860107 -1.13569885 55.6439209 -1.13894653 54.37182617 C-1.13715669 53.01871709 -1.13510573 51.66560833 -1.1328125 50.3125 C-1.13348587 48.93009423 -1.13445618 47.54768857 -1.13571167 46.1652832 C-1.13718707 43.26675287 -1.13503914 40.36825332 -1.13037109 37.46972656 C-1.12467389 33.75046843 -1.12795373 30.03128246 -1.13394356 26.31202698 C-1.13755342 23.45706639 -1.13640862 20.60212297 -1.13381577 17.74716187 C-1.13314767 16.37560009 -1.13397082 15.00403677 -1.13629532 13.63247681 C-1.13882874 11.71722442 -1.13428419 9.80196658 -1.12939453 7.88671875 C-1.12859894 6.79576904 -1.12780334 5.70481934 -1.12698364 4.58081055 C-1 2 -1 2 0 0 Z M18 14 C18 17.63 18 21.26 18 25 C20.6296875 25.061875 20.6296875 25.061875 23.3125 25.125 C24.79169922 25.15980469 24.79169922 25.15980469 26.30078125 25.1953125 C29.22406527 25.20682639 29.22406527 25.20682639 32 23 C33.0950504 20.47296063 33.15295704 19.4118074 32.1875 16.8125 C31.11878013 14.84977807 31.11878013 14.84977807 29 14 C25.32984725 13.8622315 21.67388652 13.95728039 18 14 Z M18 38 C18 42.62 18 47.24 18 52 C24.53757465 52.4460995 24.53757465 52.4460995 31 52 C33.92714963 49.18634244 34.98055547 47.9722265 35.0625 43.875 C34.20802044 40.94668068 34.20802044 40.94668068 32.125 39.125 C27.36520943 37.41147539 23.04203165 37.81775789 18 38 Z " fill="#D9A851" transform="translate(217,397)"/>
<path d="M0 0 C9.41256045 5.90873084 14.82324377 12.99316881 18.30859375 23.44921875 C19.16338737 35.79468068 18.35382543 44.91405898 10.18359375 54.76171875 C4.17900552 61.0739801 -3.07572874 65.08556342 -11.828125 65.65234375 C-24.48166566 65.81938719 -32.08267038 63.46050192 -41.3828125 54.890625 C-47.66976862 48.3200468 -49.89741179 40.39645008 -50.19140625 31.44921875 C-49.80615942 20.75570058 -46.62585507 13.34308185 -39.20703125 5.6171875 C-28.8490961 -3.30929388 -12.52193711 -6.01813167 0 0 Z M-29.06640625 21.51171875 C-31.62836425 26.14295052 -32.35366909 30.21640958 -31.69140625 35.44921875 C-30.30056122 39.84428905 -28.42083145 42.78764706 -25.00390625 45.88671875 C-20.1592159 48.17195005 -15.7983032 49.24543069 -10.51171875 47.890625 C-5.86066908 45.91612278 -2.96631832 43.14499089 -0.5390625 38.7265625 C1.23593938 33.95777864 1.29234894 29.19640745 -0.42578125 24.3984375 C-3.0100192 19.45237553 -6.42017968 16.20629427 -11.69140625 14.44921875 C-19.45617191 13.80215494 -24.20304729 15.24054536 -29.06640625 21.51171875 Z " fill="#D9A851" transform="translate(330.69140625,398.55078125)"/>
<path d="M0 0 C1.71960697 -0.02144872 3.43910875 -0.05539333 5.15820312 -0.10253906 C23.95300857 -0.61315884 23.95300857 -0.61315884 31.66577148 6.4050293 C36.7050983 12.06316083 37.01195324 17.80754161 36.94702148 25.10424805 C36.31775838 32.48934972 32.86012534 36.37434497 27.66577148 41.4050293 C27.99899414 42.02023437 28.3322168 42.63543945 28.67553711 43.26928711 C30.18089428 46.05998771 31.67343048 48.85734826 33.16577148 51.6550293 C33.69041992 52.62311523 34.21506836 53.59120117 34.75561523 54.58862305 C35.2519043 55.52319336 35.74819336 56.45776367 36.25952148 57.4206543 C36.72036133 58.27949219 37.18120117 59.13833008 37.65600586 60.02319336 C38.66577148 62.4050293 38.66577148 62.4050293 38.66577148 66.4050293 C32.39577148 66.4050293 26.12577148 66.4050293 19.66577148 66.4050293 C18.22202148 63.8887793 16.77827148 61.3725293 15.29077148 58.7800293 C14.83911621 57.99934082 14.38746094 57.21865234 13.92211914 56.41430664 C11.69662584 52.49556811 9.91748642 48.76539891 8.66577148 44.4050293 C6.35577148 44.4050293 4.04577148 44.4050293 1.66577148 44.4050293 C1.66577148 51.6650293 1.66577148 58.9250293 1.66577148 66.4050293 C-1.11860352 66.4256543 -3.90297852 66.4462793 -6.77172852 66.4675293 C-7.65014404 66.4766333 -8.52855957 66.4857373 -9.43359375 66.49511719 C-11.40068826 66.5022602 -13.36776473 66.45534823 -15.33422852 66.4050293 C-17.13685374 64.60240408 -16.46191555 61.8612592 -16.46362305 59.43237305 C-16.46677521 58.15434814 -16.46992737 56.87632324 -16.47317505 55.55957031 C-16.47138527 54.15388963 -16.46933432 52.74820925 -16.46704102 51.3425293 C-16.4677141 49.91145817 -16.46868416 48.48038714 -16.46994019 47.04931641 C-16.47141696 44.04645705 -16.46926328 41.04362739 -16.46459961 38.04077148 C-16.45890232 34.18350359 -16.46218144 30.32630526 -16.46817207 26.46903992 C-16.47177825 23.51289339 -16.47063884 20.55676347 -16.46804428 17.60061646 C-16.46737517 16.17798861 -16.46820289 14.75535927 -16.47052383 13.33273315 C-16.47305125 11.34771756 -16.46851894 9.36269671 -16.46362305 7.37768555 C-16.46282745 6.24596924 -16.46203186 5.11425293 -16.46121216 3.94824219 C-16.15395482 -2.20547033 -4.89828695 0.04584763 0 0 Z M1.66577148 14.4050293 C1.66577148 19.3550293 1.66577148 24.3050293 1.66577148 29.4050293 C9.4268652 30.24446029 9.4268652 30.24446029 16.52905273 28.04174805 C18.11189232 25.76267662 18.53349861 24.18275966 18.66577148 21.4050293 C16.99110485 17.61499429 15.49464252 15.89741113 11.66577148 14.4050293 C9.07422229 14.16472971 9.07422229 14.16472971 6.41577148 14.2800293 C4.06452148 14.3419043 4.06452148 14.3419043 1.66577148 14.4050293 Z " fill="#D9A851" transform="translate(165.334228515625,396.594970703125)"/>
<path d="M0 0 C0.68578125 -0.03738281 1.3715625 -0.07476562 2.078125 -0.11328125 C4.0859375 -0.1484375 4.0859375 -0.1484375 7.625 0.375 C11.03612004 4.7862152 12.72591465 10.4127526 14.71484375 15.57421875 C15.10064102 16.56444534 15.48643829 17.55467194 15.88392639 18.5749054 C17.11439777 21.73579252 18.33860379 24.89906191 19.5625 28.0625 C20.78423637 31.20752328 22.00724005 34.3520516 23.23036194 37.49653625 C23.98948311 39.44954342 24.74755636 41.40295837 25.50437927 43.3568573 C25.85476761 44.26091812 26.20515594 45.16497894 26.56616211 46.09643555 C26.90380585 46.97190033 27.24144958 47.84736511 27.58932495 48.74935913 C28.29619602 50.54141694 29.0265913 52.32432894 29.77713013 54.09854126 C30.32746414 55.4067836 30.32746414 55.4067836 30.88891602 56.74145508 C31.22206314 57.51354813 31.55521027 58.28564117 31.89845276 59.08113098 C32.625 61.375 32.625 61.375 32.625 66.375 C27.015 66.375 21.405 66.375 15.625 66.375 C14.305 63.405 12.985 60.435 11.625 57.375 C4.035 57.045 -3.555 56.715 -11.375 56.375 C-12.365 59.675 -13.355 62.975 -14.375 66.375 C-20.315 66.375 -26.255 66.375 -32.375 66.375 C-31.67000961 62.14505766 -31.08245817 59.19629606 -29.58081055 55.35449219 C-29.21340256 54.40620544 -28.84599457 53.4579187 -28.467453 52.480896 C-27.87061455 50.9666806 -27.87061455 50.9666806 -27.26171875 49.421875 C-26.85089554 48.36647522 -26.44007233 47.31107544 -26.01679993 46.22369385 C-24.70410246 42.85532481 -23.38337795 39.49016837 -22.0625 36.125 C-21.18502669 33.87650501 -20.30806813 31.62780908 -19.43164062 29.37890625 C-17.0887766 23.37389663 -14.73879373 17.37180186 -12.375 11.375 C-12.00049713 10.41726685 -11.62599426 9.45953369 -11.24014282 8.47277832 C-10.70325333 7.1100177 -10.70325333 7.1100177 -10.15551758 5.71972656 C-9.83658035 4.90683167 -9.51764313 4.09393677 -9.18904114 3.25640869 C-7.40792338 -0.86010369 -3.98565485 0.08149108 0 0 Z M-0.375 23.375 C-2.025 28.985 -3.675 34.595 -5.375 40.375 C-1.745 40.375 1.885 40.375 5.625 40.375 C4.4165371 34.42564416 2.87922333 29.01055833 0.625 23.375 C0.295 23.375 -0.035 23.375 -0.375 23.375 Z " fill="#D9A851" transform="translate(103.375,396.625)"/>
<path d="M0 0 C5.61 0 11.22 0 17 0 C18 1 18 1 18.12025452 2.98048401 C18.1169236 4.2828727 18.1169236 4.2828727 18.11352539 5.61157227 C18.11344986 6.59251358 18.11337433 7.5734549 18.11329651 8.5841217 C18.10813522 9.6507756 18.10297394 10.7174295 18.09765625 11.81640625 C18.0962413 12.9025975 18.09482635 13.98878876 18.09336853 15.1078949 C18.08775048 18.59279075 18.07519492 22.07762342 18.0625 25.5625 C18.05748733 27.91861887 18.05292402 30.27473874 18.04882812 32.63085938 C18.03862411 38.42061711 18.01905224 44.21023745 18 50 C26.58 50 35.16 50 44 50 C44.020625 52.454375 44.04125 54.90875 44.0625 57.4375 C44.071604 58.21150146 44.08070801 58.98550293 44.09008789 59.78295898 C44.09724913 61.52221717 44.05024702 63.26145304 44 65 C43 66 43 66 41.24729919 66.12025452 C40.10479454 66.1169236 40.10479454 66.1169236 38.93920898 66.11352539 C38.06631226 66.11340454 37.19341553 66.11328369 36.29406738 66.11315918 C35.37073608 66.10804321 34.44740479 66.10292725 33.49609375 66.09765625 C32.6517981 66.09664917 31.80750244 66.09564209 30.93762207 66.09460449 C27.77090098 66.0893557 24.60419919 66.07539456 21.4375 66.0625 C14.363125 66.041875 7.28875 66.02125 0 66 C0 44.22 0 22.44 0 0 Z " fill="#D9A851" transform="translate(363,397)"/>
<path d="M0 0 C1.13759766 -0.02900391 2.27519531 -0.05800781 3.44726562 -0.08789062 C9.84540479 -0.13644626 14.03665143 -0.15782291 18.8125 4.3125 C22.22747481 9.71036341 21.90582209 13.63845842 20.94140625 19.859375 C20.55386184 22.57194069 20.55386184 22.57194069 22.8125 25.3125 C23.5691428 29.88145843 23.85843826 34.41859287 21.57421875 38.5546875 C19.10520697 41.50769911 17.51377986 43.07874005 13.8125 44.3125 C11.83248809 44.40699003 9.84945165 44.4432174 7.8671875 44.4453125 C6.70832031 44.44660156 5.54945313 44.44789063 4.35546875 44.44921875 C2.53982422 44.44341797 2.53982422 44.44341797 0.6875 44.4375 C-1.13974609 44.44330078 -1.13974609 44.44330078 -3.00390625 44.44921875 C-4.16019531 44.44792969 -5.31648437 44.44664062 -6.5078125 44.4453125 C-7.57273926 44.44418457 -8.63766602 44.44305664 -9.73486328 44.44189453 C-12.1875 44.3125 -12.1875 44.3125 -13.1875 43.3125 C-13.2886692 40.22168535 -13.32718558 37.15367445 -13.3203125 34.0625 C-13.32126923 33.13405273 -13.32222595 32.20560547 -13.32321167 31.24902344 C-13.32389355 29.28190035 -13.32203872 27.31477504 -13.31787109 25.34765625 C-13.31252295 22.32546974 -13.31781582 19.30343185 -13.32421875 16.28125 C-13.32355797 14.37499967 -13.32227681 12.46874943 -13.3203125 10.5625 C-13.32233673 9.65209961 -13.32436096 8.74169922 -13.32644653 7.80371094 C-13.28870955 -2.22347516 -8.85614883 0.07400681 0 0 Z M-0.1875 9.3125 C-0.1875 11.9525 -0.1875 14.5925 -0.1875 17.3125 C3.22906024 17.47927282 3.22906024 17.47927282 6.8125 17.3125 C7.4725 16.6525 8.1325 15.9925 8.8125 15.3125 C8.49208603 12.70969432 8.49208603 12.70969432 7.8125 10.3125 C5.1725 9.9825 2.5325 9.6525 -0.1875 9.3125 Z M-0.1875 26.3125 C-0.1875 28.9525 -0.1875 31.5925 -0.1875 34.3125 C2.7825 34.3125 5.7525 34.3125 8.8125 34.3125 C10.01088209 31.98395537 10.01088209 31.98395537 10.8125 29.3125 C10.1525 28.3225 9.4925 27.3325 8.8125 26.3125 C6.60524927 25.94887182 6.60524927 25.94887182 4.1875 26.125 C3.37023437 26.15207031 2.55296875 26.17914063 1.7109375 26.20703125 C0.77121094 26.25923828 0.77121094 26.25923828 -0.1875 26.3125 Z " fill="#D9A851" transform="translate(216.1875,478.6875)"/>
<path d="M0 0 C1.13759766 -0.02900391 2.27519531 -0.05800781 3.44726562 -0.08789062 C9.87708036 -0.13668665 13.98167101 -0.11642974 18.8125 4.3125 C22.23828838 8.27920234 23.41447448 11.23447754 23.140625 16.359375 C22.34498831 21.09530768 19.65200272 24.59012668 16.8125 28.3125 C17.3178125 29.21613281 17.823125 30.11976563 18.34375 31.05078125 C19.0003303 32.24200551 19.65656218 33.43342185 20.3125 34.625 C20.64636719 35.21990234 20.98023438 35.81480469 21.32421875 36.42773438 C22.88075114 39.27078844 23.8125 41.01910988 23.8125 44.3125 C19.28446456 45.04788019 15.30362053 45.3673911 10.8125 44.3125 C7.39223533 40.63847376 3.8125 35.52393551 3.8125 30.3125 C2.4925 30.3125 1.1725 30.3125 -0.1875 30.3125 C-0.17589844 31.23933594 -0.16429687 32.16617187 -0.15234375 33.12109375 C-0.14332031 34.31863281 -0.13429688 35.51617188 -0.125 36.75 C-0.11339844 37.94496094 -0.10179687 39.13992188 -0.08984375 40.37109375 C-0.1875 43.3125 -0.1875 43.3125 -1.1875 44.3125 C-3.01865883 44.41101171 -4.85369933 44.44222629 -6.6875 44.4375 C-7.6878125 44.44007813 -8.688125 44.44265625 -9.71875 44.4453125 C-12.1875 44.3125 -12.1875 44.3125 -13.1875 43.3125 C-13.2886692 40.22168535 -13.32718558 37.15367445 -13.3203125 34.0625 C-13.32126923 33.13405273 -13.32222595 32.20560547 -13.32321167 31.24902344 C-13.32389355 29.28190035 -13.32203872 27.31477504 -13.31787109 25.34765625 C-13.31252295 22.32546974 -13.31781582 19.30343185 -13.32421875 16.28125 C-13.32355797 14.37499967 -13.32227681 12.46874943 -13.3203125 10.5625 C-13.32233673 9.65209961 -13.32436096 8.74169922 -13.32644653 7.80371094 C-13.28870955 -2.22347516 -8.85614883 0.07400681 0 0 Z M-0.1875 10.3125 C-0.1875 13.2825 -0.1875 16.2525 -0.1875 19.3125 C3.8225934 19.49114631 3.8225934 19.49114631 7.8125 19.3125 C8.4725 18.6525 9.1325 17.9925 9.8125 17.3125 C9.62492938 13.48685335 9.62492938 13.48685335 7.8125 10.3125 C5.14191149 10.17134839 2.48817762 10.27002893 -0.1875 10.3125 Z " fill="#D9A851" transform="translate(382.1875,478.6875)"/>
<path d="M0 0 C3.63 -0.0825 7.26 -0.165 11 -0.25 C12.12792969 -0.28641602 13.25585938 -0.32283203 14.41796875 -0.36035156 C21.97126353 -0.44291579 27.21191472 0.7969472 33.0234375 5.7109375 C38.44155913 12.38180402 39.86937585 18.45566543 39 27 C37.3276812 32.28100675 34.96149469 36.12462476 31 40 C22 44 22 44 0 44 C0 29.48 0 14.96 0 0 Z M12 11 C12 18.26 12 25.52 12 33 C20.62300486 32.19760552 20.62300486 32.19760552 26 27 C27.2545729 22.94108767 27.25603257 20.78315844 25.9375 16.75 C23.58241959 13.40730523 21.83969868 12.35518777 18 11 C16.02 11 14.04 11 12 11 Z " fill="#D9A851" transform="translate(0,479)"/>
<path d="M0 0 C26.46135831 0 26.46135831 0 32 5 C36.91822516 10.10227517 38.89530355 15.23649041 39.171875 22.2890625 C38.76816619 28.65665146 36.75160933 34.61389908 32 39 C22.54107416 46.81389526 12.38931544 44 0 44 C0 29.48 0 14.96 0 0 Z M12 11 C12 18.26 12 25.52 12 33 C19.78444246 32.30153385 19.78444246 32.30153385 25 28 C26.60306924 24.79386153 26.48740461 21.47860003 26 18 C23.90419111 14.5568854 21.8734599 12.2531782 18 11 C16.02 11 14.04 11 12 11 Z " fill="#D9A851" transform="translate(272,479)"/>
<path d="M0 0 C5.259375 -0.020625 10.51875 -0.04125 15.9375 -0.0625 C17.599021 -0.071604 19.26054199 -0.08070801 20.97241211 -0.09008789 C22.26928955 -0.09258545 23.56616699 -0.09508301 24.90234375 -0.09765625 C25.93107605 -0.1053302 25.93107605 -0.1053302 26.98059082 -0.11315918 C28.65415231 -0.11347054 30.3275958 -0.06222837 32 0 C33 1 33 1 33.1328125 3.03125 C33.13023438 3.8459375 33.12765625 4.660625 33.125 5.5 C33.12886719 6.72203125 33.12886719 6.72203125 33.1328125 7.96875 C33 10 33 10 32 11 C30.5112814 11.08669432 29.018555 11.10703494 27.52734375 11.09765625 C26.62822266 11.09443359 25.72910156 11.09121094 24.80273438 11.08789062 C23.85720703 11.07951172 22.91167969 11.07113281 21.9375 11.0625 C20.98810547 11.05798828 20.03871094 11.05347656 19.06054688 11.04882812 C16.70696935 11.0370011 14.35351523 11.02052025 12 11 C12 12.98 12 14.96 12 17 C17.28 17 22.56 17 28 17 C28.09765625 23.93359375 28.09765625 23.93359375 28 26 C27 27 27 27 23.62109375 27.09765625 C22.22652923 27.09098369 20.83198257 27.07902532 19.4375 27.0625 C18.72658203 27.05798828 18.01566406 27.05347656 17.28320312 27.04882812 C15.52209987 27.03700864 13.76103964 27.01907263 12 27 C12 28.98 12 30.96 12 33 C12.60062256 32.99476318 13.20124512 32.98952637 13.82006836 32.98413086 C16.52586838 32.96341986 19.23165177 32.95035875 21.9375 32.9375 C22.88302734 32.92912109 23.82855469 32.92074219 24.80273438 32.91210938 C26.15141602 32.90727539 26.15141602 32.90727539 27.52734375 32.90234375 C28.35999756 32.89710693 29.19265137 32.89187012 30.05053711 32.88647461 C32 33 32 33 33 34 C33 37.3 33 40.6 33 44 C22.11 44 11.22 44 0 44 C0 29.48 0 14.96 0 0 Z " fill="#D9A851" transform="translate(49,479)"/>
<path d="M0 0 C3.96 0 7.92 0 12 0 C12.01981934 0.86278564 12.03963867 1.72557129 12.06005859 2.61450195 C12.13819644 5.81836956 12.22489082 9.02185894 12.31738281 12.2253418 C12.3556435 13.61131907 12.39050156 14.99739465 12.421875 16.38354492 C12.46758699 18.3770164 12.52658925 20.37016914 12.5859375 22.36328125 C12.6173584 23.56251221 12.6487793 24.76174316 12.68115234 25.99731445 C12.78429494 29.17882706 12.78429494 29.17882706 15 32 C17.52703937 33.0950504 18.5881926 33.15295704 21.1875 32.1875 C23.15022193 31.11878013 23.15022193 31.11878013 24 29 C24.15469367 26.82325217 24.25002106 24.6421652 24.31640625 22.4609375 C24.35830078 21.15898437 24.40019531 19.85703125 24.44335938 18.515625 C24.48317299 17.13541955 24.52288522 15.75521117 24.5625 14.375 C24.60569407 12.98696585 24.64930865 11.59894472 24.69335938 10.2109375 C24.79972 6.80739744 24.90174714 3.40378222 25 0 C28.96 0 32.92 0 37 0 C37.09927153 4.73219762 37.17165633 9.46378213 37.21972656 14.19677734 C37.23977627 15.80495774 37.26702364 17.41306583 37.30175781 19.02099609 C37.35057264 21.3397002 37.37303428 23.65743625 37.390625 25.9765625 C37.41127014 26.68930328 37.43191528 27.40204407 37.45318604 28.13638306 C37.45545549 33.24621503 36.21372122 36.07316637 33 40 C27.10760156 44.54205713 22.39340202 45.70289385 15 45 C10.16039528 44.04821107 6.28461921 42.80523609 3 39 C-0.04850311 34.42724534 -0.13647269 30.80052845 -0.09765625 25.48828125 C-0.0962413 24.76005661 -0.09482635 24.03183197 -0.09336853 23.28153992 C-0.08777659 20.95848461 -0.07522562 18.63552612 -0.0625 16.3125 C-0.05748396 14.73632952 -0.05292123 13.16015752 -0.04882812 11.58398438 C-0.0378098 7.72261902 -0.02055074 3.86132592 0 0 Z " fill="#D9A851" transform="translate(321,479)"/>
<path d="M0 0 C3.63 0 7.26 0 11 0 C14.69861266 8.79626135 18.29374917 17.630305 21.8125 26.5 C22.18991333 27.43779297 22.18991333 27.43779297 22.57495117 28.39453125 C23.31302462 30.22915061 24.04142305 32.06765297 24.76953125 33.90625 C25.19854736 34.98197266 25.62756348 36.05769531 26.06958008 37.16601562 C27 40 27 40 27 44 C23.04 44 19.08 44 15 44 C14.01 40.535 14.01 40.535 13 37 C8.05 37 3.1 37 -2 37 C-2.66 38.98 -3.32 40.96 -4 43 C-5 44 -5 44 -7.50390625 44.09765625 C-8.51324219 44.08605469 -9.52257812 44.07445312 -10.5625 44.0625 C-11.57441406 44.05347656 -12.58632812 44.04445313 -13.62890625 44.03515625 C-14.41136719 44.02355469 -15.19382813 44.01195312 -16 44 C-15.36405488 38.83294589 -13.78083719 34.40836889 -11.875 29.609375 C-11.56804199 28.82355042 -11.26108398 28.03772583 -10.94482422 27.22808838 C-9.96864094 24.73322545 -8.98433437 22.24165657 -8 19.75 C-7.33802934 18.06009643 -6.67656567 16.36999418 -6.015625 14.6796875 C-1.2137109 2.42742179 -1.2137109 2.42742179 0 0 Z M5 16 C3.515 21.445 3.515 21.445 2 27 C4.31 27 6.62 27 9 27 C8.01 23.37 7.02 19.74 6 16 C5.67 16 5.34 16 5 16 Z " fill="#D9A851" transform="translate(168,479)"/>
<path d="M0 0 C1.51400391 0.01740234 1.51400391 0.01740234 3.05859375 0.03515625 C4.07050781 0.04417969 5.08242188 0.05320312 6.125 0.0625 C7.29869141 0.07990234 7.29869141 0.07990234 8.49609375 0.09765625 C10.29342528 4.65053869 12.08985987 9.20377366 13.88549805 13.75732422 C14.49528328 15.30331766 15.10530486 16.8492179 15.71557617 18.39501953 C16.59747906 20.62898122 17.47850477 22.86328721 18.359375 25.09765625 C18.62825027 25.77820068 18.89712555 26.45874512 19.17414856 27.15991211 C19.95313104 29.13724215 20.72485957 31.1172933 21.49609375 33.09765625 C21.78068451 33.814375 22.06527527 34.53109375 22.35848999 35.26953125 C23.55617569 38.34492261 24.49609375 40.76698596 24.49609375 44.09765625 C20.53609375 44.09765625 16.57609375 44.09765625 12.49609375 44.09765625 C10.49609375 40.09765625 10.49609375 40.09765625 10.49609375 37.09765625 C5.54609375 37.09765625 0.59609375 37.09765625 -4.50390625 37.09765625 C-5.16390625 39.07765625 -5.82390625 41.05765625 -6.50390625 43.09765625 C-7.50390625 44.09765625 -7.50390625 44.09765625 -10.0078125 44.1953125 C-11.01714844 44.18371094 -12.02648437 44.17210937 -13.06640625 44.16015625 C-14.07832031 44.15113281 -15.09023438 44.14210938 -16.1328125 44.1328125 C-16.91527344 44.12121094 -17.69773437 44.10960937 -18.50390625 44.09765625 C-17.92922109 38.50092273 -16.45463321 33.7869007 -14.37890625 28.57421875 C-14.07194824 27.78743744 -13.76499023 27.00065613 -13.44873047 26.19003296 C-12.80332008 24.53986017 -12.15433616 22.891081 -11.50195312 21.24365234 C-10.49983312 18.7123678 -9.50879432 16.17695838 -8.51953125 13.640625 C-7.88995866 12.03490684 -7.25977227 10.42942918 -6.62890625 8.82421875 C-6.33097168 8.06388336 -6.03303711 7.30354797 -5.72607422 6.52017212 C-3.18830245 0.12434877 -3.18830245 0.12434877 0 0 Z M2.49609375 17.09765625 C0.20564361 21.90975526 0.20564361 21.90975526 -0.50390625 27.09765625 C1.80609375 27.09765625 4.11609375 27.09765625 6.49609375 27.09765625 C5.50609375 23.79765625 4.51609375 20.49765625 3.49609375 17.09765625 C3.16609375 17.09765625 2.83609375 17.09765625 2.49609375 17.09765625 Z " fill="#D9A851" transform="translate(453.50390625,478.90234375)"/>
<path d="M0 0 C4.25145349 2.94331395 4.25145349 2.94331395 5.4375 4.6875 C5.22317797 8.00949142 3.76492034 10.36007966 1.4375 12.6875 C-1.125 13.0625 -1.125 13.0625 -3.5625 12.6875 C-4.2225 12.0275 -4.8825 11.3675 -5.5625 10.6875 C-7.88525177 10.28702556 -10.21989357 9.9477896 -12.5625 9.6875 C-12.5625 11.0075 -12.5625 12.3275 -12.5625 13.6875 C-11.9334375 13.84605469 -11.304375 14.00460937 -10.65625 14.16796875 C3.07064838 17.90978894 3.07064838 17.90978894 6.63671875 23.6015625 C8.32333775 27.99499932 8.07309552 32.2155946 6.25 36.4375 C2.33676062 41.29531441 -1.40145383 43.55797487 -7.5625 44.6875 C-14.76956095 44.6875 -20.09037332 42.99840103 -25.4375 38 C-26.13875 37.236875 -26.84 36.47375 -27.5625 35.6875 C-26.07152342 31.8922869 -23.80549151 30.07707269 -20.5625 27.6875 C-19.88703125 28.06003906 -19.2115625 28.43257813 -18.515625 28.81640625 C-17.62359375 29.28949219 -16.7315625 29.76257813 -15.8125 30.25 C-14.93078125 30.72566406 -14.0490625 31.20132813 -13.140625 31.69140625 C-10.35548812 32.76748186 -9.29269786 32.75278748 -6.5625 31.6875 C-6.61792021 29.74151307 -6.61792021 29.74151307 -7.5625 27.6875 C-10.16275059 26.27885219 -10.16275059 26.27885219 -13.3125 25.25 C-18.24485135 23.34391892 -21.35516944 21.89020901 -24.5625 17.6875 C-26.06900776 13.16797673 -26.30813919 9.32790622 -24.3125 4.9375 C-18.43735072 -2.61626336 -8.59747562 -3.16749102 0 0 Z " fill="#D9A851" transform="translate(138.5625,479.3125)"/>
<path d="M0 0 C2.20832525 1.47554012 4.00405441 3.14209994 5.73046875 5.15625 C4.32055712 8.56353644 2.93290595 10.30220741 -0.26953125 12.15625 C-5.47584101 13.77788747 -9.84075221 14.38244913 -15.26953125 14.15625 C-15.31078125 14.919375 -15.35203125 15.6825 -15.39453125 16.46875 C-16.26953125 19.15625 -16.26953125 19.15625 -18.70703125 21.03125 C-23.46767007 22.53460963 -27.40566004 21.95407868 -32.26953125 21.15625 C-30.91670956 16.72883356 -29.03654237 14.79315779 -25.26953125 12.15625 C-24.60953125 11.82625 -23.94953125 11.49625 -23.26953125 11.15625 C-26.91370865 8.7267984 -28.98194397 8.99445425 -33.26953125 9.15625 C-33.59953125 7.50625 -33.92953125 5.85625 -34.26953125 4.15625 C-31.89453125 3.53125 -31.89453125 3.53125 -29.26953125 3.15625 C-28.60953125 3.81625 -27.94953125 4.47625 -27.26953125 5.15625 C-26.82222656 4.74632812 -26.37492187 4.33640625 -25.9140625 3.9140625 C-17.8647053 -3.25999146 -9.82753952 -5.49243726 0 0 Z " fill="#D9A851" transform="translate(129.26953125,186.84375)"/>
<path d="M0 0 C4.81765499 -0.47231912 7.94151026 -0.74976357 12 2.125 C14.15299098 5.21992454 14.73991338 7.27209179 15 11 C11.71303767 11.79953138 10.28976808 12.09658936 7 11 C6.01 12.485 6.01 12.485 5 14 C5.77923828 14.43699219 5.77923828 14.43699219 6.57421875 14.8828125 C11.41249131 17.7267509 14.84886333 20.32103949 18 25 C18.8125 28.375 18.8125 28.375 19 31 C14.14197627 33.81313467 9.4716669 33.689401 4 33 C-3.55547209 30.6457587 -8.3249407 26.23857252 -13 20 C-10.57804552 17.12744934 -8.40257297 16.29161081 -4.8125 15.3125 C-3.46091797 14.93544922 -3.46091797 14.93544922 -2.08203125 14.55078125 C-1.39496094 14.36902344 -0.70789063 14.18726563 0 14 C0 12.35 0 10.7 0 9 C0.99 8.67 1.98 8.34 3 8 C2.505 7.236875 2.01 6.47375 1.5 5.6875 C0 3 0 3 0 0 Z " fill="#D9A851" transform="translate(176,132)"/>
<path d="M0 0 C3.96 0 7.92 0 12 0 C12 14.52 12 29.04 12 44 C8.37 44 4.74 44 1 44 C0 43 0 43 -0.12025452 41.24729919 C-0.11803391 40.48562943 -0.11581329 39.72395966 -0.11352539 38.93920898 C-0.11344986 38.07839218 -0.11337433 37.21757538 -0.11329651 36.33067322 C-0.10813522 35.39526199 -0.10297394 34.45985077 -0.09765625 33.49609375 C-0.0962413 32.54307877 -0.09482635 31.59006378 -0.09336853 30.60816956 C-0.08775152 27.55124835 -0.07519616 24.49439923 -0.0625 21.4375 C-0.05748719 19.37044376 -0.05292391 17.30338638 -0.04882812 15.23632812 C-0.03777656 10.15752412 -0.02050055 5.0787743 0 0 Z " fill="#D9A851" transform="translate(248,479)"/>
<path d="M0 0 C3.96 0 7.92 0 12 0 C12.02464513 6.1055471 12.04283371 12.21106551 12.05493164 18.31665039 C12.05997288 20.39543156 12.06680574 22.47420916 12.07543945 24.55297852 C12.08751422 27.53402586 12.09323024 30.51502649 12.09765625 33.49609375 C12.10281754 34.43150497 12.10797882 35.3669162 12.11329651 36.33067322 C12.11337204 37.19149002 12.11344757 38.05230682 12.11352539 38.93920898 C12.115746 39.70087875 12.11796661 40.46254852 12.12025452 41.24729919 C12 43 12 43 11 44 C9.33570949 44.09823937 7.66718069 44.12973631 6 44.125 C4.63875 44.12886719 4.63875 44.12886719 3.25 44.1328125 C1 44 1 44 0 43 C-0.09268999 41.64905018 -0.11747326 40.29332909 -0.11352539 38.93920898 C-0.11344986 38.07839218 -0.11337433 37.21757538 -0.11329651 36.33067322 C-0.10813522 35.39526199 -0.10297394 34.45985077 -0.09765625 33.49609375 C-0.0962413 32.54307877 -0.09482635 31.59006378 -0.09336853 30.60816956 C-0.08775152 27.55124835 -0.07519616 24.49439923 -0.0625 21.4375 C-0.05748719 19.37044376 -0.05292391 17.30338638 -0.04882812 15.23632812 C-0.03777656 10.15752412 -0.02050055 5.0787743 0 0 Z " fill="#D9A851" transform="translate(414,479)"/>
<path d="M0 0 C3.26460973 1.80412643 4.88929795 2.83394693 7 6 C7.66 5.34 8.32 4.68 9 4 C14.82740081 3.06906668 20.97662768 3.8273438 26 7 C30.99742604 11.91986067 33.93631738 17.58679419 34.0390625 24.70703125 C34.02617187 25.46371094 34.01328125 26.22039062 34 27 C26.1553504 26.67849797 19.7566197 25.67653673 13.984375 20.02734375 C9.50591801 15.01183603 9.50591801 15.01183603 8 12 C7.01 13.98 6.02 15.96 5 18 C2.625 17.75 2.625 17.75 0 17 C-1.8523861 14.15211389 -2.27303277 11.86278381 -2.25 8.5 C-2.25515625 7.7471875 -2.2603125 6.994375 -2.265625 6.21875 C-1.97250404 3.7703279 -1.21816769 2.12695946 0 0 Z " fill="#D9A851" transform="translate(333,207)"/>
<path d="M0 0 C1.32 0 2.64 0 4 0 C4.66 1.32 5.32 2.64 6 4 C6.804375 3.505 7.60875 3.01 8.4375 2.5 C16.00891254 -0.68796317 22.5990641 1.0606212 30 4 C27.97233606 10.06187033 24.13812932 13.37354592 19 17 C12.72467629 20.04941512 6.77524317 20.57699626 0 19 C-0.66 18.67 -1.32 18.34 -2 18 C-1.52389341 13.00088076 0.03162219 10.02167317 3 6 C1.68 6 0.36 6 -1 6 C-1.042721 4.33388095 -1.04063832 2.66617115 -1 1 C-0.67 0.67 -0.34 0.34 0 0 Z " fill="#D9A851" transform="translate(313,115)"/>
<path d="M0 0 C5.14713273 2.35297496 7.54424831 6.07905141 10 11 C11.62248262 16.35725392 11.67098449 21.08919149 9.25 26.1875 C7.54275844 29.27736676 5.91018379 31.9083054 3 34 C1 34.1875 1 34.1875 -1 33 C-4.49697052 27.7045875 -6.15641793 23.6364193 -6.0625 17.25 C-6.05347656 16.45078125 -6.04445312 15.6515625 -6.03515625 14.828125 C-6.02355469 14.22484375 -6.01195312 13.6215625 -6 13 C-7.65 12.67 -9.3 12.34 -11 12 C-10.67 10.35 -10.34 8.7 -10 7 C-8.35 7.33 -6.7 7.66 -5 8 C-3.35 5.36 -1.7 2.72 0 0 Z " fill="#D9A851" transform="translate(232,74)"/>
<path d="M0 0 C0.66 0.33 1.32 0.66 2 1 C2 2.32 2 3.64 2 5 C3.2065625 4.7215625 3.2065625 4.7215625 4.4375 4.4375 C5.7059375 4.2209375 5.7059375 4.2209375 7 4 C8 5 8 5 8.0625 7.5625 C8.041875 8.366875 8.02125 9.17125 8 10 C6.35 10 4.7 10 3 10 C2.78085937 10.73605469 2.56171875 11.47210938 2.3359375 12.23046875 C0.26444494 18.60493975 -1.23776265 22.42741284 -7 26 C-11.13209049 27.80778959 -14.50975431 28.21382122 -19 28 C-20.59841759 22.33288307 -19.52466356 18.15415744 -17 13 C-12.8402937 6.57031546 -7.27673386 2.43444661 0 0 Z " fill="#D9A851" transform="translate(280,65)"/>
<path d="M0 0 C-0.32461771 7.01174261 -1.34537028 13.57484703 -6.6796875 18.57421875 C-11.2260327 21.9790996 -14.9338018 23.14403411 -20.625 23.125 C-21.40101563 23.12757812 -22.17703125 23.13015625 -22.9765625 23.1328125 C-25 23 -25 23 -27 22 C-26.66574591 15.64917234 -25.51562921 11.59406446 -21 7 C-14.76074744 1.86179201 -7.99447652 0 0 0 Z " fill="#D9A851" transform="translate(307,94)"/>
<path d="M0 0 C4.70968887 2.63244805 7.1587735 6.96896212 9.75 11.5625 C8.9375 13.5 8.9375 13.5 7.75 15.5625 C1.74376387 17.56457871 -4.23994496 17.299521 -10.0625 14.8125 C-15.04492016 12.31689625 -19.29377091 9.38582115 -22.25 4.5625 C-22.25 3.5725 -22.25 2.5825 -22.25 1.5625 C-14.87101436 -1.71704917 -7.71873491 -3.21122941 0 0 Z " fill="#D9A851" transform="translate(178.25,181.4375)"/>
<path d="M0 0 C4.25037871 2.49709749 6.59073719 6.05286396 8.5625 10.5 C9.4375 13.9375 9.4375 13.9375 9.5625 16.5 C7.72960552 18.33289448 4.96646175 17.75869659 2.5 17.8125 C-4.70892004 17.72583539 -9.16298603 16.61208768 -14.40625 11.62890625 C-17.55804853 8.21230497 -20.15634641 5.05521276 -21.4375 0.5 C-14.75519503 -2.55406991 -6.83370989 -2.93615672 0 0 Z " fill="#D9A851" transform="translate(148.4375,87.5)"/>
<path d="M0 0 C2 2 2 2 2 4.375 C0.57981435 8.10298734 -1.56393337 9.11353205 -5 11 C-11.96915042 13.78766017 -19.40404748 11.78384308 -26 9 C-29.0625 7.3125 -29.0625 7.3125 -31 6 C-29.47548275 1.88380343 -26.55396916 -0.59958646 -23 -3 C-14.2552729 -6.90721849 -7.81428567 -4.71428569 0 0 Z " fill="#D9A851" transform="translate(148,142)"/>
<path d="M0 0 C7.91862641 -0.56561617 12.76875231 1.33070843 18.875 6.375 C23.19872471 11.7160717 23.57138116 17.35603302 23 24 C22.67 24.66 22.34 25.32 22 26 C16.54875038 26.83865379 13.40033369 24.9076888 9.1171875 21.8359375 C3.52899413 16.99008716 1.3063505 11.12554817 0 4 C0 2.68 0 1.36 0 0 Z " fill="#D9A851" transform="translate(184,56)"/>
<path d="M0 0 C3.36487781 1.40872325 5.05709457 2.99655472 7.1875 5.9375 C7.95126953 6.97197266 7.95126953 6.97197266 8.73046875 8.02734375 C11.54843914 12.40603621 11.60190862 16.96511573 11 22 C9.50094265 26.296803 7.50932301 30.03335581 4 33 C1.5625 33.125 1.5625 33.125 -1 32 C-5.01793231 26.75436615 -6.26458048 21.58511407 -6 15 C-4.9577555 9.52622736 -3.21501859 4.5928837 0 0 Z " fill="#D9A851" transform="translate(238,35)"/>
<path d="M0 0 C1.30759796 3.92279389 0.86953156 6.4566032 -0.93359375 10.16796875 C-4.88770137 16.96092287 -9.48436895 20.63348642 -17 23 C-19.36393809 23.51088772 -21.58319721 23.79431466 -24 24 C-24.51159856 17.06499736 -24.11648493 11.77377107 -20 6 C-13.83623374 -0.00572097 -8.22255201 -0.28739017 0 0 Z " fill="#D9A851" transform="translate(162,214)"/>
<path d="M0 0 C7.00069859 5.86104998 8.79626505 11.48618964 9.6875 20.25 C2.20133098 20.90097122 -4.61355448 18.49109825 -10.6875 14.0625 C-15.01055467 9.43065572 -17.3125 4.60539636 -17.3125 -1.75 C-11.29969783 -3.49565224 -5.48974615 -2.90024325 0 0 Z " fill="#D9A851" transform="translate(292.3125,204.75)"/>
<path d="M0 0 C2.83094947 0.35003063 3.80598338 0.76781618 5.66796875 2.99609375 C6.42013672 4.20458984 6.42013672 4.20458984 7.1875 5.4375 C7.95126953 6.64212891 7.95126953 6.64212891 8.73046875 7.87109375 C11.53133813 12.56793625 11.58453013 16.5891468 11 22 C9.53573749 26.32754811 7.50899955 30.01554162 4 33 C1.5625 33.1875 1.5625 33.1875 -1 32 C-5.87732036 25.27720707 -6.09275984 18.09184149 -5 10 C-3.69874822 6.39791895 -2.07401642 3.21472545 0 0 Z " fill="#D9A851" transform="translate(220,104)"/>
<path d="M0 0 C7.08496024 -0.65601484 12.09890389 0.98934353 18 5 C22.083052 9.28666877 23.14024634 13.84663681 23.125 19.625 C23.12886719 21.09839844 23.12886719 21.09839844 23.1328125 22.6015625 C23 25 23 25 22 26 C15.63273543 25.78043915 11.65198724 24.40340777 7 20 C2.09565026 13.77015033 0.79513178 7.68627388 0 0 Z " fill="#D9A851" transform="translate(184,103)"/>
<path d="M0 0 C-0.07235665 3.03897915 -0.37303967 5.23999285 -2.34375 7.62890625 C-8.43609947 13.15355952 -14.66864432 15.5086365 -22.87890625 15.23828125 C-25.7632071 14.91426219 -28.32253012 14.09844918 -31 13 C-29.51433951 6.39706447 -25.327847 1.15860346 -19.6875 -2.5 C-12.41755535 -3.85254784 -6.56437239 -3.42488994 0 0 Z " fill="#D9A851" transform="translate(212,204)"/>
<path d="M0 0 C1.62890625 0.828125 1.62890625 0.828125 3.87890625 2.328125 C3.01985886 7.8137562 -1.06331024 10.87827656 -5.12109375 14.328125 C-11.11975607 18.0196095 -17.27032391 17.84894376 -24.12109375 17.328125 C-25.11109375 16.998125 -26.10109375 16.668125 -27.12109375 16.328125 C-26.52504495 10.06961265 -24.20529044 6.20898543 -19.55859375 2.015625 C-14.17132613 -1.71402181 -6.19838526 -1.96339275 0 0 Z " fill="#D9A851" transform="translate(332.12109375,164.671875)"/>
<path d="M0 0 C2.41020486 1.21540245 4.74805016 2.48181802 7.0546875 3.8828125 C7.0546875 5.2028125 7.0546875 6.5228125 7.0546875 7.8828125 C5.19140625 9.55078125 5.19140625 9.55078125 2.7421875 11.0703125 C1.94167969 11.57949219 1.14117187 12.08867187 0.31640625 12.61328125 C-3.77324037 14.90885146 -7.13032121 15.07367523 -11.7578125 15.1328125 C-13.56185547 15.17148438 -13.56185547 15.17148438 -15.40234375 15.2109375 C-19.23519295 14.8559658 -21.64246277 13.80483837 -24.9453125 11.8828125 C-24.87010143 8.72394755 -24.57053577 6.58196962 -22.42578125 4.18359375 C-15.8454909 -1.53779555 -8.38704206 -3.18129181 0 0 Z " fill="#D9A851" transform="translate(371.9453125,138.1171875)"/>
<path d="M0 0 C0.55203616 6.34841584 -0.9769485 11.39414721 -4 17 C-6.5 19.5 -6.5 19.5 -9 21 C-9.87398438 21.53753906 -9.87398438 21.53753906 -10.765625 22.0859375 C-13.69408583 23.2839442 -16.09791378 23.19352361 -19.25 23.125 C-20.32765625 23.10695313 -21.4053125 23.08890625 -22.515625 23.0703125 C-23.33546875 23.04710938 -24.1553125 23.02390625 -25 23 C-26.19612358 19.41162925 -25.53843238 17.62357078 -24.12890625 14.19140625 C-20.52109491 7.18800777 -15.78498474 3.18736873 -8.37890625 0.609375 C-5.51400266 -0.12449193 -2.94147697 -0.30962915 0 0 Z " fill="#D9A851" transform="translate(342,77)"/>
<path d="M0 0 C0.53625 0.2475 1.0725 0.495 1.625 0.75 C1.29163876 7.19498407 0.39918181 10.30133059 -4.375 14.75 C-7.1875 15.625 -7.1875 15.625 -9.375 15.75 C-8.81468727 18.68638223 -8.81468727 18.68638223 -7.375 21.75 C-5.39977154 22.79808041 -3.40018491 23.8020411 -1.375 24.75 C-0.5 26.9375 -0.5 26.9375 -0.375 28.75 C-5.63665179 32.03853237 -8.5076821 31.98024408 -14.375 30.75 C-16.875 29.6875 -16.875 29.6875 -18.375 28.75 C-18.1875 26.9375 -18.1875 26.9375 -17.375 24.75 C-14.8125 23 -14.8125 23 -12.375 21.75 C-13.4475 21.358125 -14.52 20.96625 -15.625 20.5625 C-19.27712076 18.99201399 -21.27154973 17.19965844 -23.375 13.75 C-23.375 12.43 -23.375 11.11 -23.375 9.75 C-15.18243982 9.2773523 -15.18243982 9.2773523 -11.8125 11.25 C-11.338125 11.745 -10.86375 12.24 -10.375 12.75 C-10.30023438 12.14671875 -10.22546875 11.5434375 -10.1484375 10.921875 C-9.4053654 6.40516225 -8.98116973 4.30345931 -5.5 1.125 C-2.375 -0.25 -2.375 -0.25 0 0 Z " fill="#D9A851" transform="translate(124.375,128.25)"/>
<path d="M0 0 C4.66666667 0 9.33333333 0 14 0 C15.485 -0.12375 15.485 -0.12375 17 -0.25 C20 0 20 0 21.67578125 1.625 C23.37743453 4.67693273 23.30070621 6.778343 23.1875 10.25 C23.16042969 11.32765625 23.13335937 12.4053125 23.10546875 13.515625 C23.07066406 14.33546875 23.03585937 15.1553125 23 16 C21.33388095 16.042721 19.66617115 16.04063832 18 16 C16.41727399 14.41727399 16.65264253 12.61965997 16.4375 10.4375 C16.31181641 9.19806641 16.31181641 9.19806641 16.18359375 7.93359375 C16.12300781 7.29550781 16.06242187 6.65742187 16 6 C15.67 6 15.34 6 15 6 C14.67 9.3 14.34 12.6 14 16 C12.35 16 10.7 16 9 16 C8.67 12.7 8.34 9.4 8 6 C7.01 6.495 7.01 6.495 6 7 C5.53348793 9.12576782 5.53348793 9.12576782 5.375 11.5625 C5.30023438 12.38878906 5.22546875 13.21507812 5.1484375 14.06640625 C5.09945313 14.70449219 5.05046875 15.34257813 5 16 C3.35 16 1.7 16 0 16 C0 10.72 0 5.44 0 0 Z " fill="#D9A851" transform="translate(326,536)"/>
<path d="M0 0 C4.47062807 -0.3506375 7.9251683 -0.53741585 12 1.5 C14.80711481 5.00889351 14.77753588 7.55071768 15 12 C13.741875 11.87625 12.48375 11.7525 11.1875 11.625 C10.47980469 11.55539063 9.77210937 11.48578125 9.04296875 11.4140625 C7 11 7 11 4 9 C3.67 9.66 3.34 10.32 3 11 C3.969375 11.4125 4.93875 11.825 5.9375 12.25 C9 14 9 14 9.875 16.1875 C9.91625 16.785625 9.9575 17.38375 10 18 C6.77535685 20.60051867 4.47451151 21.24393982 0.4375 20.9375 C-2.83354843 20.45774623 -3.90354876 20.07763148 -6.5625 17.9375 C-7.2740625 16.9784375 -7.2740625 16.9784375 -8 16 C-6.02 14.35 -4.04 12.7 -2 11 C-2.33 9.35 -2.66 7.7 -3 6 C-1.68 5.67 -0.36 5.34 1 5 C0.67 3.35 0.34 1.7 0 0 Z " fill="#D9A851" transform="translate(113,108)"/>
<path d="M0 0 C1.07765625 0.03609375 2.1553125 0.0721875 3.265625 0.109375 C4.49539062 0.17898438 4.49539062 0.17898438 5.75 0.25 C5.85812003 3.00105422 5.93734945 5.74785087 6 8.5 C6.05027344 9.66595703 6.05027344 9.66595703 6.1015625 10.85546875 C6.16560198 14.60177855 6.17943154 16.61756447 4.03125 19.78125 C1.4034411 21.47312696 0.0889987 21.68170581 -3 21.5 C-3.79921875 21.46390625 -4.5984375 21.4278125 -5.421875 21.390625 C-6.02515625 21.34421875 -6.6284375 21.2978125 -7.25 21.25 C-7.435625 20.13625 -7.435625 20.13625 -7.625 19 C-8.08990411 16.31403286 -8.08990411 16.31403286 -9.3125 14.4375 C-10.71592459 11.16284262 -11.0530345 7.73435307 -10.25 4.25 C-7.23550156 0.12489687 -4.97484558 -0.21629763 0 0 Z M-3.25 5.25 C-3.91 5.91 -4.57 6.57 -5.25 7.25 C-4.9314823 9.35820797 -4.9314823 9.35820797 -4.25 11.25 C-2.93 10.92 -1.61 10.59 -0.25 10.25 C-0.25 8.93 -0.25 7.61 -0.25 6.25 C-1.24 5.92 -2.23 5.59 -3.25 5.25 Z " fill="#D9A851" transform="translate(75.25,535.75)"/>
<path d="M0 0 C0.33 0.99 0.66 1.98 1 3 C1.99 2.34 2.98 1.68 4 1 C6.33199388 0.92094936 8.66832622 0.91201231 11 1 C10.82359674 5.49828302 10.45766829 7.49874425 7.375 10.875 C3.74541843 13.1602921 1.24364947 13.74538103 -3 14 C-3 12.35 -3 10.7 -3 9 C-3.886875 9.495 -4.77375 9.99 -5.6875 10.5 C-8.87586238 11.94378674 -10.58187546 12.30159922 -14 12 C-13.58923571 6.76275536 -12.81714069 3.70807953 -9 0 C-5.81122966 -1.44008983 -3.32950715 -0.83237679 0 0 Z " fill="#D9A851" transform="translate(120,224)"/>
<path d="M0 0 C1.98 0 3.96 0 6 0 C6 6.27 6 12.54 6 19 C-4.28301887 21.05660377 -4.28301887 21.05660377 -8.4375 18.5 C-10.63559176 14.98305319 -10.81157964 12.04133533 -10 8 C-8.375 5.5 -8.375 5.5 -6 4 C-2.75 3.75 -2.75 3.75 0 4 C0 2.68 0 1.36 0 0 Z M-4 9 C-4.33 10.65 -4.66 12.3 -5 14 C-3.68 14.33 -2.36 14.66 -1 15 C-0.34 13.68 0.32 12.36 1 11 C0.34 10.34 -0.32 9.68 -1 9 C-1.99 9 -2.98 9 -4 9 Z " fill="#D9A851" transform="translate(237,532)"/>
<path d="M0 0 C11.34109091 -0.49309091 11.34109091 -0.49309091 14.359375 1.765625 C16.55407311 4.75459481 16.58403797 6.49852159 16.3828125 10.09375 C16 12 16 12 14.375 14.5 C11.39901677 16.37956836 9.45669582 16.31424507 6 16 C5.67 17.32 5.34 18.64 5 20 C3.35 20 1.7 20 0 20 C0 13.4 0 6.8 0 0 Z M7 5 C5.89163577 6.88316159 5.89163577 6.88316159 5 9 C5.33 9.66 5.66 10.32 6 11 C7.32 11 8.64 11 10 11 C10.33 9.68 10.66 8.36 11 7 C9.68 6.34 8.36 5.68 7 5 Z " fill="#D9A851" transform="translate(127,536)"/>
<path d="M0 0 C4.62 0 9.24 0 14 0 C15.14212174 4.56848698 14.746434 5.2200668 12.625 9.1875 C12.16351563 10.06792969 11.70203125 10.94835937 11.2265625 11.85546875 C10 14 10 14 9 15 C6.81360547 15.07258946 4.62499611 15.08373783 2.4375 15.0625 C0.64119141 15.04896484 0.64119141 15.04896484 -1.19140625 15.03515625 C-2.11824219 15.02355469 -3.04507813 15.01195312 -4 15 C-3.91131893 13.62391448 -3.80314061 12.24908258 -3.6875 10.875 C-3.62949219 10.10929687 -3.57148437 9.34359375 -3.51171875 8.5546875 C-3 6 -3 6 0 0 Z " fill="#D9A851" transform="translate(101,377)"/>
<path d="M0 0 C1.65 0 3.3 0 5 0 C5 1.98 5 3.96 5 6 C6.65 6 8.3 6 10 6 C10 4.02 10 2.04 10 0 C11.98 0 13.96 0 16 0 C16 5.94 16 11.88 16 18 C14.02 18 12.04 18 10 18 C10 15.69 10 13.38 10 11 C8.35 11 6.7 11 5 11 C5 13.31 5 15.62 5 18 C3.35 18 1.7 18 0 18 C0 12.06 0 6.12 0 0 Z " fill="#D9A851" transform="translate(27,534)"/>
<path d="M0 0 C0 5.28 0 10.56 0 16 C-11.02692778 16.60587515 -11.02692778 16.60587515 -15.3125 13.9375 C-17 11 -17 11 -17.0625 7.4375 C-14.2395152 -1.69568612 -8.31276417 -0.36142453 0 0 Z M-10 5 C-10.33 6.65 -10.66 8.3 -11 10 C-9.68 10.33 -8.36 10.66 -7 11 C-6.67 9.35 -6.34 7.7 -6 6 C-7.32 5.67 -8.64 5.34 -10 5 Z " fill="#D9A851" transform="translate(224,536)"/>
<path d="M0 0 C0 5.28 0 10.56 0 16 C-11.02692778 16.60587515 -11.02692778 16.60587515 -15.3125 13.9375 C-17 11 -17 11 -17.0625 7.4375 C-14.2395152 -1.69568612 -8.31276417 -0.36142453 0 0 Z M-10 5 C-10.33 6.65 -10.66 8.3 -11 10 C-9.68 10.33 -8.36 10.66 -7 11 C-6.67 9.35 -6.34 7.7 -6 6 C-7.32 5.67 -8.64 5.34 -10 5 Z " fill="#D9A851" transform="translate(196,536)"/>
<path d="M0 0 C0 5.28 0 10.56 0 16 C-11.34109091 16.49309091 -11.34109091 16.49309091 -14.359375 14.234375 C-16.09023982 11.87710195 -16.54492653 10.87529794 -16.5 8 C-16.51546875 7.01 -16.51546875 7.01 -16.53125 6 C-14.37155191 -2.13062809 -6.64244519 -0.28880196 0 0 Z M-10 5 C-10.33 6.65 -10.66 8.3 -11 10 C-9.68 10.33 -8.36 10.66 -7 11 C-6.34 10.01 -5.68 9.02 -5 8 C-5.66 7.01 -6.32 6.02 -7 5 C-7.99 5 -8.98 5 -10 5 Z " fill="#D9A851" transform="translate(162,536)"/>
<path d="M0 0 C0 5.28 0 10.56 0 16 C-11.34109091 16.49309091 -11.34109091 16.49309091 -14.359375 14.234375 C-16.09023982 11.87710195 -16.54492653 10.87529794 -16.5 8 C-16.51546875 7.01 -16.51546875 7.01 -16.53125 6 C-14.37155191 -2.13062809 -6.64244519 -0.28880196 0 0 Z M-10 5 C-10.33 6.65 -10.66 8.3 -11 10 C-9.68 10.33 -8.36 10.66 -7 11 C-6.34 9.68 -5.68 8.36 -5 7 C-5.66 6.34 -6.32 5.68 -7 5 C-7.99 5 -8.98 5 -10 5 Z " fill="#D9A851" transform="translate(368,536)"/>
<path d="M0 0 C0 5.28 0 10.56 0 16 C-11.34212201 16.49313574 -11.34212201 16.49313574 -14.35546875 14.234375 C-16.54799672 11.25545338 -16.65783984 9.50300447 -16.4296875 5.90625 C-16 4 -16 4 -14.1875 1.5 C-9.3755719 -0.76443675 -5.28727258 -0.25480832 0 0 Z M-10 5 C-10.33 6.65 -10.66 8.3 -11 10 C-9.68 10.33 -8.36 10.66 -7 11 C-6.34 9.68 -5.68 8.36 -5 7 C-5.66 6.34 -6.32 5.68 -7 5 C-7.99 5 -8.98 5 -10 5 Z " fill="#D9A851" transform="translate(100,536)"/>
<path d="M0 0 C1.2065625 0.0309375 1.2065625 0.0309375 2.4375 0.0625 C3.4275 2.0425 4.4175 4.0225 5.4375 6.0625 C6.4275 4.0825 7.4175 2.1025 8.4375 0.0625 C10.0875 0.0625 11.7375 0.0625 13.4375 0.0625 C12.81660554 5.05293921 11.34248961 9.26977748 9.4375 13.875 C9.16421875 14.55498047 8.8909375 15.23496094 8.609375 15.93554688 C6.58303571 20.91696429 6.58303571 20.91696429 5.4375 22.0625 C3.77132885 22.10313832 2.10361905 22.105221 0.4375 22.0625 C0.65277344 21.06089844 0.86804688 20.05929687 1.08984375 19.02734375 C1.4887303 14.47824434 0.65063897 11.85224615 -1 7.625 C-1.24298828 6.98884766 -1.48597656 6.35269531 -1.73632812 5.69726562 C-2.33085762 4.14682597 -2.94469258 2.60381193 -3.5625 1.0625 C-2.5625 0.0625 -2.5625 0.0625 0 0 Z " fill="#D9A851" transform="translate(373.5625,535.9375)"/>
<path d="M0 0 C3.64443151 0.69786986 4.84639337 1.50626723 6.9375 4.5625 C7.47373036 8.76297116 6.77642828 11.77647119 4.9375 15.5625 C3.9375 16.5625 3.9375 16.5625 0.6875 16.9375 C-3.0625 16.5625 -3.0625 16.5625 -6 14.4375 C-8.0625 11.5625 -8.0625 11.5625 -8.6875 8.5625 C-7.63783559 3.52411085 -5.07009643 0.9312422 0 0 Z M-2.0625 10.5625 C1.9375 11.5625 1.9375 11.5625 1.9375 11.5625 Z " fill="#D9A851" transform="translate(429.0625,535.4375)"/>
<path d="M0 0 C3.8425303 0.72047443 5.45767292 1.57152696 8 4.5625 C8.66017005 7.36391726 8.60984064 9.75493175 8 12.5625 C6.4375 15.0625 6.4375 15.0625 4 16.5625 C0.5625 17.125 0.5625 17.125 -3 16.5625 C-6.38121991 14.11651113 -7.76936783 12.66953441 -8.625 8.5625 C-7.58351809 3.56338683 -5.03644185 0.94433285 0 0 Z M-1 5.5625 C-1.66 6.8825 -2.32 8.2025 -3 9.5625 C-2.34 10.2225 -1.68 10.8825 -1 11.5625 C-0.01 11.5625 0.98 11.5625 2 11.5625 C2.33 10.2425 2.66 8.9225 3 7.5625 C1.68 6.9025 0.36 6.2425 -1 5.5625 Z " fill="#D9A851" transform="translate(396,535.4375)"/>
<path d="M0 0 C1.65 0 3.3 0 5 0 C5.33 3.3 5.66 6.6 6 10 C6.66 10 7.32 10 8 10 C8.33 6.7 8.66 3.4 9 0 C10.65 0 12.3 0 14 0 C14 5.28 14 10.56 14 16 C4.91796875 16.48828125 4.91796875 16.48828125 2 16 C-0.81776568 12.69986108 -1.37772114 10.01588605 -1.25 5.75 C-1.23453125 4.87859375 -1.2190625 4.0071875 -1.203125 3.109375 C-1 1 -1 1 0 0 Z " fill="#D9A851" transform="translate(247,536)"/>
<path d="M0 0 C3.8425303 0.72047443 5.45767292 1.57152696 8 4.5625 C8.94237143 8.56143269 8.61136591 11.54355682 6.5 15.0625 C2.98105682 17.17386591 -0.00106731 17.50487143 -4 16.5625 C-6.99097304 14.02017292 -7.84202557 12.4050303 -8.5625 8.5625 C-7.62098494 3.54108633 -5.02141367 0.94151506 0 0 Z M-1 5.5625 C-1.66 6.8825 -2.32 8.2025 -3 9.5625 C-2.34 10.2225 -1.68 10.8825 -1 11.5625 C-0.01 11.5625 0.98 11.5625 2 11.5625 C2.33 10.2425 2.66 8.9225 3 7.5625 C1.68 6.9025 0.36 6.2425 -1 5.5625 Z " fill="#D9A851" transform="translate(54,535.4375)"/>
<path d="M0 0 C2.94427735 2.06895165 3.84332955 3.50909927 4.9375 6.9375 C5.01221891 10.59872681 4.21363944 12.1304674 2 15 C-1.09173752 16.54586876 -3.59429552 16.29359521 -7 16 C-9.4375 14.5 -9.4375 14.5 -11 12 C-11.60984064 9.19243175 -11.66017005 6.80141726 -11 4 C-7.74010218 0.16482609 -4.95707565 -0.84375756 0 0 Z M-5 5 C-5.33 6.65 -5.66 8.3 -6 10 C-4.68 10.33 -3.36 10.66 -2 11 C-1.67 9.35 -1.34 7.7 -1 6 C-2.32 5.67 -3.64 5.34 -5 5 Z " fill="#D9A851" transform="translate(295,536)"/>
<path d="M0 0 C0.99 0.66 1.98 1.32 3 2 C2.814375 2.804375 2.62875 3.60875 2.4375 4.4375 C2.2209375 5.7059375 2.2209375 5.7059375 2 7 C2.33 7.33 2.66 7.66 3 8 C3.25 10.9375 3.25 10.9375 3 14 C-0.66865241 16.44576827 -2.67200343 16.23607254 -7 16 C-7.66 15.67 -8.32 15.34 -9 15 C-8.7525 13.824375 -8.7525 13.824375 -8.5 12.625 C-7.95345269 9.75562662 -7.89578627 8.36948503 -8.6875 5.5625 C-9 3 -9 3 -7.9375 1.1875 C-5.17428518 -0.50608328 -3.18170002 -0.33142708 0 0 Z " fill="#D9A851" transform="translate(448,536)"/>
<path d="M0 0 C3 0.375 3 0.375 6 2.375 C5.814375 3.179375 5.62875 3.98375 5.4375 4.8125 C5.2209375 6.0809375 5.2209375 6.0809375 5 7.375 C5.33 7.705 5.66 8.035 6 8.375 C6.1875 11.3125 6.1875 11.3125 6 14.375 C4 16.375 4 16.375 2.125 16.640625 C1.42375 16.63546875 0.7225 16.6303125 0 16.625 C-1.051875 16.63273438 -1.051875 16.63273438 -2.125 16.640625 C-4 16.375 -4 16.375 -6 14.375 C-5.625 12.375 -5.625 12.375 -5 10.375 C-4.88524845 8.35511408 -4.88524845 8.35511408 -5.6875 6.5 C-6 4.375 -6 4.375 -4.9375 2.125 C-3 0.375 -3 0.375 0 0 Z " fill="#D9A851" transform="translate(308,535.625)"/>
<path d="M0 0 C0.495 0.33 0.99 0.66 1.5 1 C1.15557106 3.49710982 0.65296001 4.82154665 -1 6.75 C-4.75557239 8.62778619 -8.37646606 8.23789619 -12.5 8 C-12.83 9.65 -13.16 11.3 -13.5 13 C-15.15 12.67 -16.8 12.34 -18.5 12 C-18.5 10.35 -18.5 8.7 -18.5 7 C-17.51 6.67 -16.52 6.34 -15.5 6 C-15.83 5.01 -16.16 4.02 -16.5 3 C-12.15972679 -1.75363256 -5.86050099 -2.3442004 0 0 Z " fill="#D9A851" transform="translate(353.5,93)"/>
<path d="M0 0 C1.65 0 3.3 0 5 0 C5.625 1.8125 5.625 1.8125 6 4 C5.01 5.485 5.01 5.485 4 7 C4.99 7.66 5.98 8.32 7 9 C6.625 11.4375 6.625 11.4375 6 14 C2.32349261 15.8382537 -1.97796199 15.37884188 -6 15 C-9.125 13.5 -9.125 13.5 -11 12 C-7.9342948 7.34012809 -5.41342681 6.14514798 0 5 C-0.33 4.01 -0.66 3.02 -1 2 C-0.67 1.34 -0.34 0.68 0 0 Z " fill="#D9A851" transform="translate(165,77)"/>
<path d="M0 0 C1.66519519 0.34060811 3.33157466 0.67558396 5 1 C4.67 2.65 4.34 4.3 4 6 C1.03 5.505 1.03 5.505 -2 5 C-2.020625 5.70125 -2.04125 6.4025 -2.0625 7.125 C-3.44979209 11.3793624 -6.51624172 13.35307139 -10 16 C-10.66 15.67 -11.32 15.34 -12 15 C-12.78316087 6.03715898 -12.78316087 6.03715898 -9.6875 1.9375 C-6.01436083 -0.71057707 -4.22029666 -1.24126372 0 0 Z " fill="#D9A851" transform="translate(199,170)"/>
<path d="M0 0 C3.40667322 0.44824648 5.07914607 1.05276405 8 3 C10.64632287 2.6878236 10.64632287 2.6878236 13 2 C13.33 3.65 13.66 5.3 14 7 C12.35 7.33 10.7 7.66 9 8 C9 10.64 9 13.28 9 16 C5.64710718 15.71260919 3.96043396 14.97186415 1.1875 13 C-1.71707212 9.01658681 -1.69378977 5.79706068 -1 1 C-0.67 0.67 -0.34 0.34 0 0 Z " fill="#D9A851" transform="translate(306,79)"/>
<path d="M0 0 C-0.24601959 4.18233304 -0.62060634 6.50136834 -3.1875 9.875 C-6.25944948 12.19602849 -8.20135193 12.73497804 -12 13 C-12.33 14.32 -12.66 15.64 -13 17 C-14.65 17 -16.3 17 -18 17 C-18 15.35 -18 13.7 -18 12 C-16.68 11.67 -15.36 11.34 -14 11 C-13.938125 10.278125 -13.87625 9.55625 -13.8125 8.8125 C-12.74007034 5.1002435 -10.90242087 3.48778932 -8 1 C-5.07175348 0.02391783 -3.04386724 -0.08226668 0 0 Z " fill="#D9A851" transform="translate(299,73)"/>
<path d="M0 0 C1.65 0 3.3 0 5 0 C5.5625 1.9375 5.5625 1.9375 6 4 C5.67 4.33 5.34 4.66 5 5 C6.32 5.33 7.64 5.66 9 6 C9.4145769 9.38571139 9.59813044 11.97492124 7.83984375 14.98828125 C5.43437519 17.95974241 3.80932504 19.73608966 0.125 20.9375 C-0.57625 20.958125 -1.2775 20.97875 -2 21 C-2.63019694 11.82713348 -2.63019694 11.82713348 0 8.375 C0.66 7.92125 1.32 7.4675 2 7 C1.34 6.34 0.68 5.68 0 5 C-0.125 2.375 -0.125 2.375 0 0 Z " fill="#D9A851" transform="translate(132,106)"/>
<path d="M0 0 C0.99 0.33 1.98 0.66 3 1 C3.29145729 9.74371859 3.29145729 9.74371859 1 13 C0.443125 13.474375 -0.11375 13.94875 -0.6875 14.4375 C-1.120625 14.953125 -1.55375 15.46875 -2 16 C-1.76956136 18.65466049 -1.76956136 18.65466049 -1 21 C-2.65 21.33 -4.3 21.66 -6 22 C-6.144375 21.21625 -6.28875 20.4325 -6.4375 19.625 C-6.87798925 17.03578982 -6.87798925 17.03578982 -8 15 C-8.47747649 11.5212427 -8.67117492 9.04703288 -6.73046875 6.01953125 C-2.8273703 1.41368515 -2.8273703 1.41368515 0 0 Z " fill="#D9A851" transform="translate(279,41)"/>
<path d="M0 0 C0.89847656 0.00257813 1.79695313 0.00515625 2.72265625 0.0078125 C3.61855469 0.00523437 4.51445313 0.00265625 5.4375 0 C7.78515625 0.1328125 7.78515625 0.1328125 9.78515625 1.1328125 C9.45515625 2.7828125 9.12515625 4.4328125 8.78515625 6.1328125 C7.13515625 6.1328125 5.48515625 6.1328125 3.78515625 6.1328125 C3.45515625 9.4328125 3.12515625 12.7328125 2.78515625 16.1328125 C1.13515625 16.1328125 -0.51484375 16.1328125 -2.21484375 16.1328125 C-3.21484375 15.1328125 -3.21484375 15.1328125 -3.34765625 12.0078125 C-3.34507813 10.7290625 -3.3425 9.4503125 -3.33984375 8.1328125 C-3.34242187 6.8540625 -3.345 5.5753125 -3.34765625 4.2578125 C-3.17479017 0.19037542 -3.17479017 0.19037542 0 0 Z " fill="#D9A851" transform="translate(106.21484375,535.8671875)"/>
<path d="M0 0 C3.42578919 0.29363907 4.99181587 0.9936759 7.75 3.125 C10.4449386 6.56853266 10.92106184 8.65840108 11 13 C10.0625 15.4375 10.0625 15.4375 9 17 C5.08695821 15.73090537 3.14389712 14.53743024 1 11 C-0.28317892 7.15046324 -0.06643637 4.05261865 0 0 Z " fill="#D9A851" transform="translate(171,51)"/>
<path d="M0 0 C1.37478516 0.01740234 1.37478516 0.01740234 2.77734375 0.03515625 C3.69644531 0.04417969 4.61554688 0.05320312 5.5625 0.0625 C6.27277344 0.07410156 6.98304688 0.08570313 7.71484375 0.09765625 C8.77734375 1.97265625 8.77734375 1.97265625 9.71484375 4.09765625 C9.38484375 4.75765625 9.05484375 5.41765625 8.71484375 6.09765625 C7.06484375 6.09765625 5.41484375 6.09765625 3.71484375 6.09765625 C3.38484375 9.39765625 3.05484375 12.69765625 2.71484375 16.09765625 C1.06484375 16.09765625 -0.58515625 16.09765625 -2.28515625 16.09765625 C-3.28515625 15.09765625 -3.28515625 15.09765625 -3.41796875 11.97265625 C-3.41539062 10.69390625 -3.4128125 9.41515625 -3.41015625 8.09765625 C-3.41273438 6.81890625 -3.4153125 5.54015625 -3.41796875 4.22265625 C-3.24439846 0.13864951 -3.24439846 0.13864951 0 0 Z " fill="#D9A851" transform="translate(168.28515625,535.90234375)"/>
<path d="M0 0 C8.88156226 -0.77605884 8.88156226 -0.77605884 13.0625 2.125 C15.14419243 5.21396297 15.74277844 7.31315759 16 11 C12.71357602 12.06325482 11.22916281 12.08418226 7.9375 10.875 C4.25734957 8.52596781 1.59925851 6.13799972 0.39453125 1.83984375 C0.26433594 1.23269531 0.13414062 0.62554687 0 0 Z " fill="#D9A851" transform="translate(136,128)"/>
<path d="M0 0 C2.42590217 1.46373 3.98991925 2.93966723 6 5 C6 5.66 6 6.32 6 7 C1.86763795 9.00356948 -1.42561479 9.4901127 -6 9 C-8.98356441 7.18391731 -10.61660986 6.06169578 -11.8125 2.75 C-11.874375 2.1725 -11.93625 1.595 -12 1 C-8.2069757 -1.68672555 -4.26829118 -1.29193488 0 0 Z " fill="#D9A851" transform="translate(369,208)"/>
<path d="M0 0 C2.89401051 1.29731506 5.16400267 2.37714667 7 5 C8.54814109 11.85605338 8.54814109 11.85605338 6.5625 16 C6.046875 16.66 5.53125 17.32 5 18 C3.1875 17.875 3.1875 17.875 1 17 C-2.23797854 12.5338227 -2.16627911 9.16395378 -1.421875 3.953125 C-1 2 -1 2 0 0 Z " fill="#D9A851" transform="translate(341,151)"/>
<path d="M0 0 C-0.93882759 3.47366207 -1.69230196 4.78532695 -4.6875 6.875 C-8.63685645 8.21629087 -10.97680572 7.98682124 -15 7 C-15.99 6.34 -16.98 5.68 -18 5 C-17.875 3.1875 -17.875 3.1875 -17 1 C-11.24592953 -3.06995228 -6.43344265 -2.14448088 0 0 Z " fill="#D9A851" transform="translate(336,138)"/>
<path d="M0 0 C2.375 1.5625 2.375 1.5625 4 3 C3.75 4.875 3.75 4.875 3 7 C0.0171155 8.94019478 -2.00949217 9.20424417 -5.5 8.75 C-6.2528125 8.66234375 -7.005625 8.5746875 -7.78125 8.484375 C-10.1101584 7.97595134 -11.92229716 7.15218067 -14 6 C-12.94728122 2.94711553 -11.99648603 1.99768398 -9.25 0.1875 C-5.52141197 -1.1748687 -3.76820825 -1.14684599 0 0 Z " fill="#D9A851" transform="translate(174,110)"/>
<path d="M0 0 C3.91225672 1.26884002 6.0949669 2.28518545 8 6 C9.56942675 13.8611465 9.56942675 13.8611465 8 17 C1.46377003 15.11175579 1.46377003 15.11175579 -1 12 C-1.58203125 9.84375 -1.58203125 9.84375 -1.8125 7.5 C-1.90144531 6.7265625 -1.99039062 5.953125 -2.08203125 5.15625 C-2 3 -2 3 0 0 Z " fill="#D9A851" transform="translate(361,108)"/>
<path d="M0 0 C-0.24767574 3.34362255 -1.27924452 4.28573857 -3.6875 6.75 C-6.07624289 8.61173007 -7.00027717 9.0000388 -10.125 9.4375 C-12.85209482 9.02250731 -14.66576165 8.43645437 -17 7 C-16.875 4.6875 -16.875 4.6875 -16 2 C-10.85731737 -1.55089991 -5.88298276 -1.96099425 0 0 Z " fill="#D9A851" transform="translate(326,222)"/>
<path d="M0 0 C3.25292927 0.23235209 4.08032006 1.08900331 6.3125 3.5625 C8.54867366 8.11766857 8.14021147 10.11337941 7 15 C6.34 15.66 5.68 16.32 5 17 C3.68 17 2.36 17 1 17 C-1.93167369 11.37118652 -2.26673537 8.22811555 -1 2 C-0.67 1.34 -0.34 0.68 0 0 Z " fill="#D9A851" transform="translate(310,202)"/>
<path d="M0 0 C3.70390021 2.02666238 5.65363011 3.48044516 8 7 C4.79583981 9.58400015 2.45655718 10.25865219 -1.5625 10 C-5.03805399 9.47779656 -5.90472199 9.08620392 -8.625 6.625 C-9.07875 5.75875 -9.5325 4.8925 -10 4 C-9.67 3.01 -9.34 2.02 -9 1 C-5.89046621 -0.5547669 -3.43733239 -0.28644437 0 0 Z " fill="#D9A851" transform="translate(323,193)"/>
<path d="M0 0 C0.99 0.66 1.98 1.32 3 2 C2.74310052 5.16842693 2.41729253 6.60962957 0.0625 8.8125 C-4.30058354 10.5043079 -8.37574683 10.24243657 -13 10 C-13.33 9.34 -13.66 8.68 -14 8 C-10.07566936 1.55288538 -7.68304497 -0.65387617 0 0 Z " fill="#D9A851" transform="translate(206,181)"/>
<path d="M0 0 C4.81765499 -0.47231912 7.94151026 -0.74976357 12 2.125 C14.15299098 5.21992454 14.73991338 7.27209179 15 11 C11.74753522 12.05226802 10.21196351 12.07353836 6.9375 10.9375 C3.522994 8.68537902 1.93887993 6.57947063 0 3 C0 2.01 0 1.02 0 0 Z " fill="#D9A851" transform="translate(110,171)"/>
<path d="M0 0 C3.73447933 0.32394011 6.39059868 0.5751782 9.57421875 2.64453125 C11.52295301 5.73002716 11.7970256 8.41602034 12.07421875 12.01953125 C7.63384349 12.46356878 5.57339243 12.33975588 1.76171875 9.89453125 C-1.00877949 6.93074244 -2.01671847 4.92850121 -2.92578125 1.01953125 C-1.92578125 0.01953125 -1.92578125 0.01953125 0 0 Z " fill="#D9A851" transform="translate(154.92578125,155.98046875)"/>
<path d="M0 0 C-0.93882759 3.47366207 -1.69230196 4.78532695 -4.6875 6.875 C-8.63685645 8.21629087 -10.97680572 7.98682124 -15 7 C-15.99 6.34 -16.98 5.68 -18 5 C-17.875 3.1875 -17.875 3.1875 -17 1 C-11.24592953 -3.06995228 -6.43344265 -2.14448088 0 0 Z " fill="#D9A851" transform="translate(336,154)"/>
<path d="M0 0 C4.994063 -0.50959826 8.8092873 -0.59851033 13.0625 2.3125 C14.5165625 3.6428125 14.5165625 3.6428125 16 5 C16 5.99 16 6.98 16 8 C11.2567392 9.96671789 7.99363771 10.29464681 3 9 C0.5 7.25 0.5 7.25 -1 5 C-0.75 2.25 -0.75 2.25 0 0 Z " fill="#D9A851" transform="translate(339,107)"/>
<path d="M0 0 C-0.2828463 3.67700184 -0.51872954 6.29660472 -2.625 9.375 C-5.75317177 11.51532805 -8.24609955 11.79524179 -12 12 C-12.99 11.67 -13.98 11.34 -15 11 C-14.58565093 6.16592748 -12.62206046 4.10462326 -9 1 C-5.8035914 -0.06546953 -3.34252724 -0.07427838 0 0 Z " fill="#D9A851" transform="translate(328,102)"/>
<path d="M0 0 C2.49710982 0.34442894 3.82154665 0.84703999 5.75 2.5 C7.63516304 6.27032608 7.59205828 9.86318252 7 14 C5.5 16.5625 5.5 16.5625 4 18 C1.67241689 17.06896676 0.25642868 16.34617872 -1.25 14.3125 C-2.89930254 9.2271505 -2.30171899 4.74729542 0 0 Z " fill="#D9A851" transform="translate(209,96)"/>
<path d="M0 0 C6.41253644 2.29883382 6.41253644 2.29883382 8.9375 5.3125 C10.18108359 8.45803496 10.3647234 10.64454476 10 14 C9.01 15.485 9.01 15.485 8 17 C4.08774328 15.73115998 1.9050331 14.71481455 0 11 C-1.56942675 3.1388535 -1.56942675 3.1388535 0 0 Z " fill="#D9A851" transform="translate(212,83)"/>
<path d="M0 0 C3.46754912 0.2972185 4.98469519 0.98782572 7.75 3.1875 C10.26234059 6.32792574 10.8307402 8.02239459 11 12 C10.5625 14.375 10.5625 14.375 10 16 C7.75 16.3125 7.75 16.3125 5 16 C2.03847808 12.95621359 0.11045021 10.3106183 -0.09765625 5.95703125 C-0.06510417 3.97135417 -0.03255208 1.98567708 0 0 Z " fill="#D9A851" transform="translate(213,59)"/>
<path d="M0 0 C3 2 3 2 5 4 C3.25 7.875 3.25 7.875 1 9 C-4.438918 9.55564585 -8.52479327 9.46467618 -13 6 C-10.4082475 0.0190327 -6.20699212 -1.03852397 0 0 Z " fill="#D9A851" transform="translate(155,202)"/>
<path d="M0 0 C2.5625 2 2.5625 2 4 4 C4 4.66 4 5.32 4 6 C0.29740878 8.46839414 -3.69977691 8.70817166 -8 8 C-11.44312714 5.8755173 -12.71617547 4.85147359 -14 1 C-13 -1 -13 -1 -11.21875 -1.66796875 C-7.29929085 -2.25450753 -3.7077738 -1.28581514 0 0 Z " fill="#D9A851" transform="translate(347,194)"/>
<path d="M0 0 C3.26460973 1.80412643 4.88929795 2.83394693 7 6 C7.52173913 14.2173913 7.52173913 14.2173913 5 18 C2.625 17.75 2.625 17.75 0 17 C-1.8523861 14.15211389 -2.27303277 11.86278381 -2.25 8.5 C-2.25515625 7.7471875 -2.2603125 6.994375 -2.265625 6.21875 C-1.97250404 3.7703279 -1.21816769 2.12695946 0 0 Z " fill="#D9A851" transform="translate(355,188)"/>
<path d="M0 0 C0.86625 0.00644531 1.7325 0.01289063 2.625 0.01953125 C5 0.1875 5 0.1875 8 1.1875 C7.12269491 3.89252403 6.28331029 5.87150006 4.375 8 C0.92578083 9.72460959 -2.21434964 9.79258346 -6 9.1875 C-8.5 7.6875 -8.5 7.6875 -10 6.1875 C-7.82912138 1.17778011 -5.36599296 -0.08783619 0 0 Z " fill="#D9A851" transform="translate(329,181.8125)"/>
<path d="M0 0 C0.66 0.33 1.32 0.66 2 1 C0.7096828 3.87839991 -0.45406381 6.09054786 -3 8 C-8.3330247 9.6968715 -11.21788219 8.39105891 -16 6 C-15.70848534 3.18202494 -15.15583027 2.1457767 -13.0625 0.1875 C-8.61197428 -1.53821406 -4.62759103 -0.88456607 0 0 Z " fill="#D9A851" transform="translate(299,183)"/>
<path d="M0 0 C0.85464844 -0.01675781 1.70929688 -0.03351563 2.58984375 -0.05078125 C5.5046356 0.37745831 6.87576679 1.38959539 9.0625 3.3125 C3.28237952 9.24472892 3.28237952 9.24472892 -1.3125 9.5 C-4.60817523 9.32953404 -6.2211829 9.05094294 -8.9375 7.3125 C-8.625 4.9375 -8.625 4.9375 -7.9375 2.3125 C-4.73125113 0.17500075 -3.71291897 0.01675001 0 0 Z " fill="#D9A851" transform="translate(370.9375,167.6875)"/>
<path d="M0 0 C2.375 1.5625 2.375 1.5625 4 3 C3.8125 4.875 3.8125 4.875 3 7 C-0.73268569 9.37534544 -3.9384254 9.0832669 -8.12890625 8.42578125 C-10.30135352 7.93142477 -12.11015688 7.18115195 -14 6 C-12.94728122 2.94711553 -11.99648603 1.99768398 -9.25 0.1875 C-5.52141197 -1.1748687 -3.76820825 -1.14684599 0 0 Z " fill="#D9A851" transform="translate(179,169)"/>
<path d="M0 0 C0.66 0.66 1.32 1.32 2 2 C1.875 4 1.875 4 1 6 C-2.76217751 8.40315304 -5.58754315 8.13020429 -9.87109375 7.55859375 C-12.77903383 6.79559296 -14.2314031 5.38376103 -16 3 C-10.0427836 -2.12982523 -7.52432552 -2.64744787 0 0 Z " fill="#D9A851" transform="translate(130,163)"/>
<path d="M0 0 C1.43859375 -0.00773438 1.43859375 -0.00773438 2.90625 -0.015625 C5.5 0.25 5.5 0.25 8.5 2.25 C7.0435664 6.08968859 5.21785783 7.56006462 1.5 9.25 C-3.17146691 9.83393336 -5.68184371 8.94516915 -9.5 6.25 C-9.1875 4.375 -9.1875 4.375 -8.5 2.25 C-5.14802157 0.01534771 -3.92208754 -0.02108649 0 0 Z " fill="#D9A851" transform="translate(362.5,155.75)"/>
<path d="M0 0 C2.9375 1.5 2.9375 1.5 5 3 C4.6875 4.875 4.6875 4.875 4 7 C-0.04601939 9.69734626 -3.25423764 9.43218852 -8 9 C-11.0625 8 -11.0625 8 -13 7 C-12.69611836 4.06247746 -12.19330344 3.15919107 -9.875 1.25 C-6.2901772 -0.30861861 -3.87882048 -0.41558791 0 0 Z " fill="#D9A851" transform="translate(184,122)"/>
<path d="M0 0 C-1.39957689 3.38231081 -2.73064421 5.27928642 -6 7 C-10.36602196 7.58393298 -14.23741777 7.50838815 -18 5 C-17.51963048 0.43648961 -17.51963048 0.43648961 -15.4375 -1.3125 C-9.97254826 -2.85389664 -5.0503888 -2.5251944 0 0 Z " fill="#D9A851" transform="translate(286,94)"/>
<path d="M0 0 C3.26460973 1.80412643 4.88929795 2.83394693 7 6 C7.265625 8.15625 7.265625 8.15625 7.25 10.5 C7.25515625 11.2734375 7.2603125 12.046875 7.265625 12.84375 C7 15 7 15 5 18 C2.625 17.75 2.625 17.75 0 17 C-1.8523861 14.15211389 -2.27303277 11.86278381 -2.25 8.5 C-2.25515625 7.7471875 -2.2603125 6.994375 -2.265625 6.21875 C-1.97250404 3.7703279 -1.21816769 2.12695946 0 0 Z " fill="#D9A851" transform="translate(250,80)"/>
<path d="M0 0 C-0.2418136 7.13350126 -0.2418136 7.13350126 -3.625 11 C-7.45937934 13.27222479 -9.62047674 13.43795233 -14 13 C-14.33 12.01 -14.66 11.02 -15 10 C-12.86919808 6.2119077 -10.79891894 3.18725636 -7 1 C-4.58163075 0.36661758 -2.49465534 0 0 0 Z " fill="#D9A851" transform="translate(331,67)"/>
<path d="M0 0 C1.19882812 0.15275391 1.19882812 0.15275391 2.421875 0.30859375 C3.02515625 0.39238281 3.6284375 0.47617187 4.25 0.5625 C3.55200509 4.36089093 2.09295373 6.17271862 -1 8.57421875 C-4.04050256 10.29128827 -6.3810015 10.12399975 -9.75 9.5625 C-12.1875 7.5625 -12.1875 7.5625 -13.75 5.5625 C-9.14136487 0.56981194 -6.70129153 -0.88693564 0 0 Z " fill="#D9A851" transform="translate(262.75,62.4375)"/>
<path d="M0 0 C2.49710982 0.34442894 3.82154665 0.84703999 5.75 2.5 C7.63544394 6.27088789 7.72036686 9.86736909 7 14 C5 16.5625 5 16.5625 3 18 C-0.875 15.375 -0.875 15.375 -2 12 C-2.25343766 7.43812214 -2.00169177 4.12848928 0 0 Z " fill="#D9A851" transform="translate(221,36)"/>
<path d="M0 0 C0 1.32 0 2.64 0 4 C0.99 4 1.98 4 3 4 C3 5.65 3 7.3 3 9 C2.01 9 1.02 9 0 9 C0 12.63 0 16.26 0 20 C-1.65 20 -3.3 20 -5 20 C-5 16.37 -5 12.74 -5 9 C-5.66 9 -6.32 9 -7 9 C-7 7.35 -7 5.7 -7 4 C-6.34 4 -5.68 4 -5 4 C-5 3.01 -5 2.02 -5 1 C-3 0 -3 0 0 0 Z " fill="#D9A851" transform="translate(279,532)"/>
<path d="M0 0 C5.12897894 -0.36490759 8.89817111 -0.56057961 13.5625 1.8125 C16 4 16 4 17 7 C12.70018731 9.42778539 8.85420516 9.85358137 4 9 C0.875 6.75 0.875 6.75 -1 4 C-0.6171875 1.828125 -0.6171875 1.828125 0 0 Z " fill="#D9A851" transform="translate(330,227)"/>
<path d="M0 0 C-0.33336124 6.44498407 -1.22581819 9.55133059 -6 14 C-8.8125 14.875 -8.8125 14.875 -11 15 C-11.78530425 6.01262916 -11.78530425 6.01262916 -8.625 1.9375 C-5.1079192 -0.65844059 -4.12543129 -1.23762939 0 0 Z " fill="#D9A851" transform="translate(180,201)"/>
<path d="M0 0 C0.9590625 -0.01675781 1.918125 -0.03351563 2.90625 -0.05078125 C5.84780511 0.36121367 6.70423739 1.01319585 8.5 3.3125 C2.76325639 9.20021054 2.76325639 9.20021054 -1.3125 9.5625 C-4.85541555 9.28462427 -6.62955745 8.33869474 -9.5 6.3125 C-9.1875 4.4375 -9.1875 4.4375 -8.5 2.3125 C-5.16602694 0.08985129 -3.90485109 0.01574537 0 0 Z " fill="#D9A851" transform="translate(372.5,187.6875)"/>
<path d="M0 0 C4.81765499 -0.47231912 7.94151026 -0.74976357 12 2.125 C14.15299098 5.21992454 14.73991338 7.27209179 15 11 C11.99347037 12.32287304 10.71858633 11.91457085 7.5 10.9375 C3.69063136 9.15979464 1.94509583 6.73458399 0 3 C0 2.01 0 1.02 0 0 Z " fill="#D9A851" transform="translate(138,183)"/>
<path d="M0 0 C2.5 1.5 2.5 1.5 4 3 C3.67 4.65 3.34 6.3 3 8 C-2.25538604 9.75179535 -6.48888781 9.64761951 -11.5 7.5 C-12.325 7.005 -13.15 6.51 -14 6 C-13 3 -13 3 -10.9375 1.3125 C-6.90212192 -0.49054127 -4.41583636 -0.42055584 0 0 Z " fill="#D9A851" transform="translate(108,176)"/>
<path d="M0 0 C-0.26008662 3.72790821 -0.84700902 5.78007546 -3 8.875 C-7.05848974 11.74976357 -10.18234501 11.47231912 -15 11 C-15.33 10.34 -15.66 9.68 -16 9 C-14.72076887 5.65978537 -13.54174664 3.46435427 -10.8125 1.125 C-7.00640438 -0.39743825 -4.08332139 -0.20762651 0 0 Z " fill="#D9A851" transform="translate(356,174)"/>
<path d="M0 0 C0.46924131 4.69241308 0.83043081 8.63327614 -2.1875 12.5 C-4.99487529 14.9954447 -6.31299634 15.78931408 -10 16 C-10.9196476 11.30979721 -11.36070796 8.24927433 -9 4 C-6.37629185 0.80592052 -4.18388547 0 0 0 Z " fill="#D9A851" transform="translate(147,154)"/>
<path d="M0 0 C3.31213541 0.28389732 5.04824285 1.03323396 7.8125 2.9375 C10.89156586 7.2481922 10.44855582 10.86652788 10 16 C9.01 16.33 8.02 16.66 7 17 C3.57953579 14.74749918 1.5087809 12.79606518 0 9 C-0.1953125 6.640625 -0.1953125 6.640625 -0.125 4.25 C-0.10695312 3.45078125 -0.08890625 2.6515625 -0.0703125 1.828125 C-0.04710937 1.22484375 -0.02390625 0.6215625 0 0 Z " fill="#D9A851" transform="translate(161,127)"/>
<path d="M0 0 C2.5625 1.25 2.5625 1.25 4 3 C4 4.32 4 5.64 4 7 C-0.67525312 9.56384848 -4.95043132 9.12011899 -10 8 C-12.27734375 6.953125 -12.27734375 6.953125 -14 6 C-11.13677684 -0.60743806 -6.51751349 -0.76469021 0 0 Z " fill="#D9A851" transform="translate(131,97)"/>
<path d="M0 0 C3.76842665 0.21533867 4.99717333 0.99736177 7.8125 3.625 C10.42023316 7.00933081 10.48934939 9.75897199 10 14 C9.67 14.66 9.34 15.32 9 16 C5.68110095 15.72342508 4.23599737 15.21633092 1.75 12.9375 C-0.53960895 9.09422784 -0.78075926 6.45789503 -1 2 C-0.67 1.34 -0.34 0.68 0 0 Z " fill="#D9A851" transform="translate(167,93)"/>
<path d="M0 0 C2.4375 1.8125 2.4375 1.8125 4 4 C4 5.32 4 6.64 4 8 C0.78408734 9.60795633 -2.5122895 9.47148679 -6 9 C-9.5 7.25 -9.5 7.25 -12 5 C-12 3.68 -12 2.36 -12 1 C-7.67437961 -1.2283499 -4.69542622 -1.1951994 0 0 Z " fill="#D9A851" transform="translate(194,86)"/>
<path d="M0 0 C8.10043881 0.19039493 8.10043881 0.19039493 11.5 3.25 C12.96711265 5.93970652 13.74620478 7.95445732 14 11 C13 12 13 12 10.3125 12.3125 C6.16409788 11.92114131 4.20166443 10.61954362 1 8 C-0.4375 6 -0.4375 6 -1 4 C-0.70630173 2.65737935 -0.37720442 1.32159211 0 0 Z " fill="#D9A851" transform="translate(151,65)"/>
<path d="M0 0 C3.125 1.5 3.125 1.5 5 3 C4.01158836 5.6956681 3.30627815 6.81623311 0.8125 8.3125 C-2.8163542 9.19955325 -5.37571314 8.85664962 -9 8 C-11.4375 6.4375 -11.4375 6.4375 -13 5 C-12.625 3.0625 -12.625 3.0625 -12 1 C-8.32349261 -0.8382537 -4.02203801 -0.37884188 0 0 Z " fill="#D9A851" transform="translate(314,56)"/>
<path d="M0 0 C4.14030433 0.24354731 6.5031277 0.63274656 9.875 3.125 C12.36725344 6.4968723 12.75645269 8.85969567 13 13 C9.13391023 13.30322273 6.62686446 13.31343223 3.125 11.5625 C0.12632773 7.94645403 0.1077414 4.58390694 0 0 Z " fill="#D9A851" transform="translate(285,54)"/>
<path d="M0 0 C7.99651568 -0.6271777 7.99651568 -0.6271777 12 1.875 C15.22206562 5.29844472 15.10020553 7.3905454 15 12 C7.83549559 11.63570317 7.83549559 11.63570317 4.125 8.8125 C1.92878148 5.9057402 0.89821957 3.51122196 0 0 Z " fill="#D9A851" transform="translate(189,43)"/>
<path d="M0 0 C2.9375 2 2.9375 2 5 4 C3.25 7.875 3.25 7.875 1 9 C-4.438918 9.55564585 -8.52479327 9.46467618 -13 6 C-12.06896676 3.67241689 -11.34617872 2.25642868 -9.3125 0.75 C-6.01294404 -0.32012626 -3.44962955 -0.3631189 0 0 Z " fill="#D9A851" transform="translate(136,210)"/>
<path d="M0 0 C3.4872168 2.3248112 3.91987142 3.59935708 4.75 7.75 C4.87375 9.35875 4.87375 9.35875 5 11 C1.61428861 11.4145769 -0.97492124 11.59813044 -3.98828125 9.83984375 C-6.95974241 7.43437519 -8.73608966 5.80932504 -9.9375 2.125 C-9.958125 1.42375 -9.97875 0.7225 -10 0 C-6.73152751 -1.63423625 -3.4232227 -0.86088967 0 0 Z " fill="#D9A851" transform="translate(112,211)"/>
<path d="M0 0 C0.35307679 4.50172909 0.55924321 7.92625304 -1.5625 12 C-4.67003806 14.54977482 -7.04276182 14.7716978 -11 15 C-12.33305538 11.3340977 -12.01612661 10.03741374 -10.4375 6.375 C-8.03638612 2.53489104 -4.69895903 0 0 0 Z " fill="#D9A851" transform="translate(306,163)"/>
<path d="M0 0 C3 1.75 3 1.75 5 4 C5 5.32 5 6.64 5 8 C1.53002704 9.73498648 -2.20625539 9.4702464 -6 9 C-9.5625 7.1875 -9.5625 7.1875 -12 5 C-12 4.01 -12 3.02 -12 2 C-8.29335281 -0.47109812 -4.30406847 -0.69887845 0 0 Z " fill="#D9A851" transform="translate(108,159)"/>
<path d="M0 0 C-1.24976756 3.65316671 -1.67098753 4.78065836 -5 7 C-9.20884445 7.5968343 -12.85784706 7.66857733 -16.5625 5.5 C-17.036875 5.005 -17.51125 4.51 -18 4 C-17.06896676 1.67241689 -16.34617872 0.25642868 -14.3125 -1.25 C-9.2271505 -2.89930254 -4.74729542 -2.30171899 0 0 Z " fill="#D9A851" transform="translate(315,150)"/>
<path d="M0 0 C6.7826087 0.11304348 6.7826087 0.11304348 9.640625 2.1953125 C12.08725627 4.88098245 12.97819186 6.76447213 13.3125 10.375 C13.1578125 11.674375 13.1578125 11.674375 13 13 C8.92996443 13.48452804 7.26560076 13.16855433 3.75 10.9375 C0.54076901 8.01390737 -0.178129 5.19154207 -1 1 C-0.67 0.67 -0.34 0.34 0 0 Z " fill="#D9A851" transform="translate(169,68)"/>
<path d="M0 0 C2.36810318 0.94724127 3.75207953 1.65291134 5.25 3.75 C6.61250182 7.83750547 6.49960932 10.87587903 4.75 14.8125 C3 17 3 17 0.8125 17.8125 C0.214375 17.874375 -0.38375 17.93625 -1 18 C-3.21477492 14.67783762 -3.29667707 13.44966677 -3.3125 9.5625 C-3.32925781 8.61503906 -3.34601563 7.66757812 -3.36328125 6.69140625 C-2.94988891 3.62874691 -2.03729471 2.27381441 0 0 Z " fill="#D9A851" transform="translate(257,37)"/>
<path d="M0 0 C-0.26008662 3.72790821 -0.84700902 5.78007546 -3 8.875 C-7.05848974 11.74976357 -10.18234501 11.47231912 -15 11 C-15.375 8.8125 -15.375 8.8125 -15 6 C-9.74652289 0.97493494 -7.15446874 -0.13249016 0 0 Z " fill="#D9A851" transform="translate(359,125)"/>
<path d="M0 0 C0.99 0.66 1.98 1.32 3 2 C1.60478153 5.37177797 0.23717239 7.25017709 -3 9 C-7.14222569 9.36984158 -10.55063087 9.52069283 -14 7 C-14.33 6.01 -14.66 5.02 -15 4 C-10.59834814 -0.69509532 -6.09594619 -0.88856165 0 0 Z " fill="#D9A851" transform="translate(307,118)"/>
<path d="M0 0 C2.0625 1.3125 2.0625 1.3125 3 3 C2.8125 5.125 2.8125 5.125 2 7 C-1.92264405 8.96132202 -6.72345226 8.48640203 -11 8 C-13.6875 6 -13.6875 6 -15 4 C-9.60658615 -0.39989025 -6.94993971 -1.6027412 0 0 Z " fill="#D9A851" transform="translate(151,77)"/>
<path d="M0 0 C2.27734375 1.0234375 2.27734375 1.0234375 4 2 C2.60478153 5.37177797 1.23717239 7.25017709 -2 9 C-6.14222569 9.36984158 -9.55063087 9.52069283 -13 7 C-13.33 6.01 -13.66 5.02 -14 4 C-9.72293146 -0.41503849 -5.86460551 -0.902247 0 0 Z " fill="#D9A851" transform="translate(306,196)"/>
<path d="M0 0 C3.24474984 0.27039582 4.79204902 0.8257708 7.3125 2.9375 C9.70691458 7.28291905 9.33949794 11.14329334 9 16 C4.68433833 15.52048204 2.7980059 14.29764982 0 11 C-1.49297212 8.01405576 -1.11755228 5.29146376 -1 2 C-0.67 1.34 -0.34 0.68 0 0 Z " fill="#D9A851" transform="translate(147,113)"/>
<path d="M0 0 C0.47935012 4.02654103 0.10954733 5.80917562 -1.9375 9.375 C-3.74038211 11.3758865 -4.64868894 11.94360224 -7.3359375 12.375 C-9.58835827 12.375 -11.76399238 12.26305972 -14 12 C-13.86210108 9.03517326 -13.71055664 6.78765516 -11.66796875 4.5234375 C-7.555392 1.10129334 -5.26982089 -0.1386795 0 0 Z " fill="#D9A851" transform="translate(273,104)"/>
<path d="M0 0 C0.99 0.66 1.98 1.32 3 2 C2.70926678 4.81042113 2.18436938 5.83347282 0.0625 7.75 C-4.29729941 9.52950996 -8.35153438 9.24370596 -13 9 C-13.33 7.68 -13.66 6.36 -14 5 C-9.23386824 0.23386824 -6.74063285 -0.77351525 0 0 Z " fill="#D9A851" transform="translate(153,168)"/>
<path d="M0 0 C3.63 0 7.26 0 11 0 C11.66 1.32 12.32 2.64 13 4 C11.1875 5.0625 11.1875 5.0625 9 6 C8.01 5.67 7.02 5.34 6 5 C5.67 8.63 5.34 12.26 5 16 C3.35 16 1.7 16 0 16 C0 10.72 0 5.44 0 0 Z " fill="#D9A851" transform="translate(407,536)"/>
<path d="M0 0 C1.65 0 3.3 0 5 0 C5 6.6 5 13.2 5 20 C3.35 20 1.7 20 0 20 C-1.5220959 18.4779041 -1.12959521 17.11789918 -1.1328125 15 C-1.13410156 14.195625 -1.13539063 13.39125 -1.13671875 12.5625 C-1.13285156 11.716875 -1.12898438 10.87125 -1.125 10 C-1.12886719 9.154375 -1.13273437 8.30875 -1.13671875 7.4375 C-1.13542969 6.633125 -1.13414062 5.82875 -1.1328125 5 C-1.13168457 4.2575 -1.13055664 3.515 -1.12939453 2.75 C-1 1 -1 1 0 0 Z " fill="#D9A851" transform="translate(265,532)"/>
<path d="M0 0 C1.37478516 0.01740234 1.37478516 0.01740234 2.77734375 0.03515625 C3.69644531 0.04417969 4.61554688 0.05320312 5.5625 0.0625 C6.27277344 0.07410156 6.98304688 0.08570313 7.71484375 0.09765625 C7.18083478 4.013722 6.51814908 6.49104559 4.71484375 10.09765625 C1.74484375 10.09765625 -1.22515625 10.09765625 -4.28515625 10.09765625 C-3.30353149 0.14117656 -3.30353149 0.14117656 0 0 Z " fill="#D9A851" transform="translate(420.28515625,465.90234375)"/>
<path d="M0 0 C0 1.65 0 3.3 0 5 C-3.75 6.125 -3.75 6.125 -6 5 C-6 3.35 -6 1.7 -6 0 C-3.50907189 -1.24546405 -2.58919267 -0.7767578 0 0 Z " fill="#D9A851" transform="translate(382,161)"/>
<path d="M0 0 C1.65 0.33 3.3 0.66 5 1 C4.67 2.65 4.34 4.3 4 6 C2.35 5.67 0.7 5.34 -1 5 C-0.67 3.35 -0.34 1.7 0 0 Z " fill="#D9A851" transform="translate(102,219)"/>
<path d="M0 0 C1.65 0.33 3.3 0.66 5 1 C4.67 2.65 4.34 4.3 4 6 C2.35 5.67 0.7 5.34 -1 5 C-0.67 3.35 -0.34 1.7 0 0 Z " fill="#D9A851" transform="translate(321,206)"/>
<path d="M0 0 C1.65 0.33 3.3 0.66 5 1 C4.67 2.65 4.34 4.3 4 6 C2.35 5.67 0.7 5.34 -1 5 C-0.67 3.35 -0.34 1.7 0 0 Z " fill="#D9A851" transform="translate(158,195)"/>
<path d="M0 0 C1.65 0 3.3 0 5 0 C5.33 1.65 5.66 3.3 6 5 C4.34385343 5.38218767 2.67542976 5.71395102 1 6 C0 5 0 5 -0.0625 2.4375 C-0.041875 1.633125 -0.02125 0.82875 0 0 Z " fill="#D9A851" transform="translate(205,192)"/>
<path d="M0 0 C0 1.65 0 3.3 0 5 C-1.65 5 -3.3 5 -5 5 C-5.33 3.35 -5.66 1.7 -6 0 C-3.50907189 -1.24546405 -2.58919267 -0.7767578 0 0 Z " fill="#D9A851" transform="translate(350,188)"/>
<path d="M0 0 C1.65 0.33 3.3 0.66 5 1 C4.67 2.65 4.34 4.3 4 6 C2.35 5.67 0.7 5.34 -1 5 C-0.67 3.35 -0.34 1.7 0 0 Z " fill="#D9A851" transform="translate(308,186)"/>
<path d="M0 0 C1.65 0.33 3.3 0.66 5 1 C4.67 2.65 4.34 4.3 4 6 C2.35 5.67 0.7 5.34 -1 5 C-0.67 3.35 -0.34 1.7 0 0 Z " fill="#D9A851" transform="translate(361,181)"/>
<path d="M0 0 C1.65 0.33 3.3 0.66 5 1 C4.67 2.65 4.34 4.3 4 6 C2.35 5.67 0.7 5.34 -1 5 C-0.67 3.35 -0.34 1.7 0 0 Z " fill="#D9A851" transform="translate(375,180)"/>
<path d="M0 0 C1.65 0.33 3.3 0.66 5 1 C4.67 2.65 4.34 4.3 4 6 C2.35 5.67 0.7 5.34 -1 5 C-0.67 3.35 -0.34 1.7 0 0 Z " fill="#D9A851" transform="translate(131,175)"/>
<path d="M0 0 C1.65 0.33 3.3 0.66 5 1 C4.67 2.65 4.34 4.3 4 6 C2.35 5.67 0.7 5.34 -1 5 C-0.67 3.35 -0.34 1.7 0 0 Z " fill="#D9A851" transform="translate(158,174)"/>
<path d="M0 0 C1.65 0.33 3.3 0.66 5 1 C4.67 2.65 4.34 4.3 4 6 C2.35 5.67 0.7 5.34 -1 5 C-0.67 3.35 -0.34 1.7 0 0 Z " fill="#D9A851" transform="translate(338,171)"/>
<path d="M0 0 C1.65 0.33 3.3 0.66 5 1 C4.67 2.65 4.34 4.3 4 6 C2.35 5.67 0.7 5.34 -1 5 C-0.67 3.35 -0.34 1.7 0 0 Z " fill="#D9A851" transform="translate(354,167)"/>
<path d="M0 0 C1.65 0.33 3.3 0.66 5 1 C4.67 2.65 4.34 4.3 4 6 C2.35 5.67 0.7 5.34 -1 5 C-0.67 3.35 -0.34 1.7 0 0 Z " fill="#D9A851" transform="translate(130,156)"/>
<path d="M0 0 C1.67542976 0.28604898 3.34385343 0.61781233 5 1 C4.67 2.65 4.34 4.3 4 6 C2.35 6 0.7 6 -1 6 C-1.042721 4.33388095 -1.04063832 2.66617115 -1 1 C-0.67 0.67 -0.34 0.34 0 0 Z " fill="#D9A851" transform="translate(98,151)"/>
<path d="M0 0 C1.65 0.33 3.3 0.66 5 1 C4.67 2.65 4.34 4.3 4 6 C2.35 5.67 0.7 5.34 -1 5 C-0.67 3.35 -0.34 1.7 0 0 Z " fill="#D9A851" transform="translate(155,147)"/>
<path d="M0 0 C2.125 0.9375 2.125 0.9375 4 2 C3.6875 3.9375 3.6875 3.9375 3 6 C2.01 6.33 1.02 6.66 0 7 C-0.66 6.67 -1.32 6.34 -2 6 C-2 4.35 -2 2.7 -2 1 C-1.34 0.67 -0.68 0.34 0 0 Z " fill="#D9A851" transform="translate(313,142)"/>
<path d="M0 0 C1.65 0.33 3.3 0.66 5 1 C4.67 2.65 4.34 4.3 4 6 C2.35 5.67 0.7 5.34 -1 5 C-0.67 3.35 -0.34 1.7 0 0 Z " fill="#D9A851" transform="translate(302,130)"/>
<path d="M0 0 C1.65 0.33 3.3 0.66 5 1 C4.67 2.65 4.34 4.3 4 6 C2.35 5.67 0.7 5.34 -1 5 C-0.67 3.35 -0.34 1.7 0 0 Z " fill="#D9A851" transform="translate(338,129)"/>
<path d="M0 0 C2.0625 0.1875 2.0625 0.1875 4 1 C4.33 1.99 4.66 2.98 5 4 C4.67 4.66 4.34 5.32 4 6 C2.35 6 0.7 6 -1 6 C-1.625 4.125 -1.625 4.125 -2 2 C-1.34 1.34 -0.68 0.68 0 0 Z " fill="#D9A851" transform="translate(129,129)"/>
<path d="M0 0 C1.65 0.33 3.3 0.66 5 1 C4.67 2.65 4.34 4.3 4 6 C2.35 5.67 0.7 5.34 -1 5 C-0.67 3.35 -0.34 1.7 0 0 Z " fill="#D9A851" transform="translate(364,128)"/>
<path d="M0 0 C1.65 0.33 3.3 0.66 5 1 C4.67 2.65 4.34 4.3 4 6 C2.35 5.67 0.7 5.34 -1 5 C-0.67 3.35 -0.34 1.7 0 0 Z " fill="#D9A851" transform="translate(283,124)"/>
<path d="M0 0 C1.65 0.33 3.3 0.66 5 1 C4.67 2.65 4.34 4.3 4 6 C2.35 5.67 0.7 5.34 -1 5 C-0.67 3.35 -0.34 1.7 0 0 Z " fill="#D9A851" transform="translate(165,120)"/>
<path d="M0 0 C1.65 0.33 3.3 0.66 5 1 C4.67 2.65 4.34 4.3 4 6 C2.35 5.67 0.7 5.34 -1 5 C-0.67 3.35 -0.34 1.7 0 0 Z " fill="#D9A851" transform="translate(354,102)"/>
<path d="M0 0 C2.0625 0.4375 2.0625 0.4375 4 1 C4 2.65 4 4.3 4 6 C2.125 6.625 2.125 6.625 0 7 C-0.66 6.34 -1.32 5.68 -2 5 C-1.46428571 1.46428571 -1.46428571 1.46428571 0 0 Z " fill="#D9A851" transform="translate(161,102)"/>
<path d="M0 0 C1.65 0.33 3.3 0.66 5 1 C4.67 2.65 4.34 4.3 4 6 C2.35 5.67 0.7 5.34 -1 5 C-0.67 3.35 -0.34 1.7 0 0 Z " fill="#D9A851" transform="translate(308,99)"/>
<path d="M0 0 C1.65 0 3.3 0 5 0 C5.625 1.875 5.625 1.875 6 4 C5.34 4.66 4.68 5.32 4 6 C1.9375 5.8125 1.9375 5.8125 0 5 C-0.33 4.01 -0.66 3.02 -1 2 C-0.67 1.34 -0.34 0.68 0 0 Z " fill="#D9A851" transform="translate(185,77)"/>
<path d="M0 0 C1.65 0.33 3.3 0.66 5 1 C4.67 2.65 4.34 4.3 4 6 C2.35 5.67 0.7 5.34 -1 5 C-0.67 3.35 -0.34 1.7 0 0 Z " fill="#D9A851" transform="translate(245,71)"/>
<path d="M0 0 C1.65 0.33 3.3 0.66 5 1 C4.67 2.65 4.34 4.3 4 6 C2.35 5.67 0.7 5.34 -1 5 C-0.67 3.35 -0.34 1.7 0 0 Z " fill="#D9A851" transform="translate(227,67)"/>
<path d="M0 0 C0 1.65 0 3.3 0 5 C-1.65 5 -3.3 5 -5 5 C-5.33 3.35 -5.66 1.7 -6 0 C-3.50907189 -1.24546405 -2.58919267 -0.7767578 0 0 Z " fill="#D9A851" transform="translate(169,61)"/>
<path d="M0 0 C1.65 0.33 3.3 0.66 5 1 C4.67 2.65 4.34 4.3 4 6 C2.35 5.67 0.7 5.34 -1 5 C-0.67 3.35 -0.34 1.7 0 0 Z " fill="#D9A851" transform="translate(205,58)"/>
<path d="M0 0 C1.65 0 3.3 0 5 0 C5.33 1.65 5.66 3.3 6 5 C4.34385343 5.38218767 2.67542976 5.71395102 1 6 C0 5 0 5 -0.0625 2.4375 C-0.041875 1.633125 -0.02125 0.82875 0 0 Z " fill="#D9A851" transform="translate(293,49)"/>
<path d="M0 0 C2.125 0.375 2.125 0.375 4 1 C4 2.65 4 4.3 4 6 C2.35 6 0.7 6 -1 6 C-1.625 4.125 -1.625 4.125 -2 2 C-1.34 1.34 -0.68 0.68 0 0 Z " fill="#D9A851" transform="translate(134,220)"/>
<path d="M0 0 C1.65 0 3.3 0 5 0 C5 1.65 5 3.3 5 5 C3.125 5.625 3.125 5.625 1 6 C0.34 5.34 -0.32 4.68 -1 4 C-0.625 1.875 -0.625 1.875 0 0 Z " fill="#D9A851" transform="translate(345,204)"/>
<path d="M0 0 C2.125 0.375 2.125 0.375 4 1 C4 2.65 4 4.3 4 6 C2.35 6 0.7 6 -1 6 C-1.625 4.125 -1.625 4.125 -2 2 C-1.34 1.34 -0.68 0.68 0 0 Z " fill="#D9A851" transform="translate(119,203)"/>
<path d="M0 0 C1.65 0 3.3 0 5 0 C5.625 1.875 5.625 1.875 6 4 C5.34 4.66 4.68 5.32 4 6 C1.875 5.625 1.875 5.625 0 5 C0 3.35 0 1.7 0 0 Z " fill="#D9A851" transform="translate(373,202)"/>
<path d="M0 0 C2.125 0.9375 2.125 0.9375 4 2 C3.6875 3.9375 3.6875 3.9375 3 6 C2.01 6.33 1.02 6.66 0 7 C-0.66 6.67 -1.32 6.34 -2 6 C-2 4.35 -2 2.7 -2 1 C-1.34 0.67 -0.68 0.34 0 0 Z " fill="#D9A851" transform="translate(192,192)"/>
<path d="M0 0 C-0.33 1.65 -0.66 3.3 -1 5 C-2.65 5 -4.3 5 -6 5 C-6 3.35 -6 1.7 -6 0 C-3.50907189 -1.24546405 -2.58919267 -0.7767578 0 0 Z " fill="#D9A851" transform="translate(101,168)"/>
<path d="M0 0 C1.65 0 3.3 0 5 0 C5 1.65 5 3.3 5 5 C3.125 5.625 3.125 5.625 1 6 C0.34 5.34 -0.32 4.68 -1 4 C-0.625 1.875 -0.625 1.875 0 0 Z " fill="#D9A851" transform="translate(155,135)"/>
<path d="M0 0 C2.0625 0.4375 2.0625 0.4375 4 1 C4.5625 2.9375 4.5625 2.9375 5 5 C4 6 4 6 1.4375 6.0625 C0.2309375 6.0315625 0.2309375 6.0315625 -1 6 C-1.042721 4.33388095 -1.04063832 2.66617115 -1 1 C-0.67 0.67 -0.34 0.34 0 0 Z " fill="#D9A851" transform="translate(104,128)"/>
<path d="M0 0 C1.65 0 3.3 0 5 0 C5.33 0.99 5.66 1.98 6 3 C5.01 4.485 5.01 4.485 4 6 C2.0625 5.6875 2.0625 5.6875 0 5 C-0.33 4.01 -0.66 3.02 -1 2 C-0.67 1.34 -0.34 0.68 0 0 Z " fill="#D9A851" transform="translate(236,114)"/>
<path d="M0 0 C1.65 0 3.3 0 5 0 C5 1.65 5 3.3 5 5 C3.125 5.625 3.125 5.625 1 6 C0.34 5.34 -0.32 4.68 -1 4 C-0.625 1.875 -0.625 1.875 0 0 Z " fill="#D9A851" transform="translate(328,109)"/>
<path d="M0 0 C1.65 0 3.3 0 5 0 C5 1.65 5 3.3 5 5 C3.125 5.625 3.125 5.625 1 6 C0.34 5.34 -0.32 4.68 -1 4 C-0.625 1.875 -0.625 1.875 0 0 Z " fill="#D9A851" transform="translate(260,96)"/>
<path d="M0 0 C1.65 0 3.3 0 5 0 C5.625 1.875 5.625 1.875 6 4 C5.34 4.66 4.68 5.32 4 6 C1.875 5.625 1.875 5.625 0 5 C0 3.35 0 1.7 0 0 Z " fill="#D9A851" transform="translate(179,96)"/>
<path d="M0 0 C1.9375 0.3125 1.9375 0.3125 4 1 C4.33 1.99 4.66 2.98 5 4 C4.67 4.66 4.34 5.32 4 6 C2.35 6 0.7 6 -1 6 C-1.33 5.01 -1.66 4.02 -2 3 C-1.34 2.01 -0.68 1.02 0 0 Z " fill="#D9A851" transform="translate(297,86)"/>
<path d="M0 0 C2.0625 0.4375 2.0625 0.4375 4 1 C4.5625 2.9375 4.5625 2.9375 5 5 C4 6 4 6 1.4375 6.0625 C0.2309375 6.0315625 0.2309375 6.0315625 -1 6 C-1.042721 4.33388095 -1.04063832 2.66617115 -1 1 C-0.67 0.67 -0.34 0.34 0 0 Z " fill="#D9A851" transform="translate(204,85)"/>
<path d="M0 0 C1.65 0 3.3 0 5 0 C5.625 1.875 5.625 1.875 6 4 C5.34 4.66 4.68 5.32 4 6 C1.875 5.625 1.875 5.625 0 5 C0 3.35 0 1.7 0 0 Z " fill="#D9A851" transform="translate(251,56)"/>
<path d="M0 0 C1.65 0 3.3 0 5 0 C5.33 1.65 5.66 3.3 6 5 C2.25 6.125 2.25 6.125 0 5 C0 3.35 0 1.7 0 0 Z " fill="#D9A851" transform="translate(225,56)"/>
<path d="M0 0 C1.65 0 3.3 0 5 0 C5.625 1.875 5.625 1.875 6 4 C5.34 4.66 4.68 5.32 4 6 C1.875 5.625 1.875 5.625 0 5 C0 3.35 0 1.7 0 0 Z " fill="#D9A851" transform="translate(211,49)"/>
<path d="M0 0 C2.0625 0.4375 2.0625 0.4375 4 1 C4.5625 2.9375 4.5625 2.9375 5 5 C4 6 4 6 1.4375 6.0625 C0.2309375 6.0315625 0.2309375 6.0315625 -1 6 C-1.042721 4.33388095 -1.04063832 2.66617115 -1 1 C-0.67 0.67 -0.34 0.34 0 0 Z " fill="#D9A851" transform="translate(208,38)"/>
<path d="M0 0 C1.65 0 3.3 0 5 0 C5 1.65 5 3.3 5 5 C3.125 5.625 3.125 5.625 1 6 C0.34 5.34 -0.32 4.68 -1 4 C-0.625 1.875 -0.625 1.875 0 0 Z " fill="#D9A851" transform="translate(301,208)"/>
<path d="M0 0 C-0.33 1.65 -0.66 3.3 -1 5 C-2.65 4.67 -4.3 4.34 -6 4 C-6 2.68 -6 1.36 -6 0 C-3.50907189 -1.24546405 -2.58919267 -0.7767578 0 0 Z " fill="#D9A851" transform="translate(140,199)"/>
<path d="M0 0 C1.65 0 3.3 0 5 0 C5.33 1.32 5.66 2.64 6 4 C4.125 5.0625 4.125 5.0625 2 6 C1.34 5.67 0.68 5.34 0 5 C0 3.35 0 1.7 0 0 Z " fill="#D9A851" transform="translate(337,142)"/>
<path d="M0 0 C1.65 0 3.3 0 5 0 C5.33 1.32 5.66 2.64 6 4 C4.125 5.0625 4.125 5.0625 2 6 C1.34 5.67 0.68 5.34 0 5 C0 3.35 0 1.7 0 0 Z " fill="#D9A851" transform="translate(254,126)"/>
<path d="M0 0 C1.65 0 3.3 0 5 0 C5.33 1.32 5.66 2.64 6 4 C4.125 5.0625 4.125 5.0625 2 6 C1.34 5.67 0.68 5.34 0 5 C0 3.35 0 1.7 0 0 Z " fill="#D9A851" transform="translate(153,108)"/>
<path d="M0 0 C2.125 0.9375 2.125 0.9375 4 2 C3.67 3.32 3.34 4.64 3 6 C1.35 6 -0.3 6 -2 6 C-2 4.35 -2 2.7 -2 1 C-1.34 0.67 -0.68 0.34 0 0 Z " fill="#D9A851" transform="translate(277,103)"/>
<path d="M0 0 C2 0.25 2 0.25 4 1 C4.33 1.99 4.66 2.98 5 4 C4.67 4.66 4.34 5.32 4 6 C2.35 6 0.7 6 -1 6 C-1.042721 4.33388095 -1.04063832 2.66617115 -1 1 C-0.67 0.67 -0.34 0.34 0 0 Z " fill="#D9A851" transform="translate(200,95)"/>
<path d="M0 0 C1.65 0 3.3 0 5 0 C5.33 1.32 5.66 2.64 6 4 C4.125 5.0625 4.125 5.0625 2 6 C1.34 5.67 0.68 5.34 0 5 C0 3.35 0 1.7 0 0 Z " fill="#D9A851" transform="translate(157,93)"/>
<path d="M0 0 C-0.33 1.65 -0.66 3.3 -1 5 C-2.65 4.67 -4.3 4.34 -6 4 C-6 2.68 -6 1.36 -6 0 C-3.50907189 -1.24546405 -2.58919267 -0.7767578 0 0 Z " fill="#D9A851" transform="translate(313,71)"/>
<path d="M0 0 C-0.33 1.65 -0.66 3.3 -1 5 C-2.65 4.67 -4.3 4.34 -6 4 C-6 2.68 -6 1.36 -6 0 C-3.50907189 -1.24546405 -2.58919267 -0.7767578 0 0 Z " fill="#D9A851" transform="translate(271,39)"/>
</svg>
